<?xml version="1.0" encoding="UTF-8" standalone="no"?>
<!-- Created with Inkscape (http://www.inkscape.org/) -->

<svg
   xmlns:dc="http://purl.org/dc/elements/1.1/"
   xmlns:cc="http://creativecommons.org/ns#"
   xmlns:rdf="http://www.w3.org/1999/02/22-rdf-syntax-ns#"
   xmlns:svg="http://www.w3.org/2000/svg"
   xmlns="http://www.w3.org/2000/svg"
   xmlns:sodipodi="http://sodipodi.sourceforge.net/DTD/sodipodi-0.dtd"
   xmlns:inkscape="http://www.inkscape.org/namespaces/inkscape"
   width="256"
   height="256"
   viewBox="0 0 256 256"
   id="svg2"
   version="1.1"
   inkscape:version="0.91 r"
   sodipodi:docname="folder.svg">
  <defs
     id="defs4">
    <clipPath
       id="clipPath3361"
       clipPathUnits="userSpaceOnUse">
      <path
         inkscape:connector-curvature="0"
         id="path3363"
         d="M 0,64 64,64 64,0 0,0 0,64 Z" />
    </clipPath>
    <clipPath
       id="clipPath3373"
       clipPathUnits="userSpaceOnUse">
      <path
         inkscape:connector-curvature="0"
         id="path3375"
         d="m 12,41.077 40,0 L 52,14 12,14 12,41.077 Z" />
    </clipPath>
  </defs>
  <sodipodi:namedview
     id="base"
     pagecolor="#ffffff"
     bordercolor="#666666"
     borderopacity="1.0"
     inkscape:pageopacity="0.0"
     inkscape:pageshadow="2"
     inkscape:zoom="0.7"
     inkscape:cx="273.31645"
     inkscape:cy="140.52327"
     inkscape:document-units="px"
     inkscape:current-layer="layer1"
     showgrid="false"
     units="px" />
  <metadata
     id="metadata7">
    <rdf:RDF>
      <cc:Work
         rdf:about="">
        <dc:format>image/svg+xml</dc:format>
        <dc:type
           rdf:resource="http://purl.org/dc/dcmitype/StillImage" />
        <dc:title />
      </cc:Work>
    </rdf:RDF>
  </metadata>
  <g
     inkscape:label="Layer 1"
     inkscape:groupmode="layer"
     id="layer1"
     transform="translate(0,-796.36216)">
    <g
       id="g3350"
       transform="matrix(1.0666667,0,0,1.0666667,-8.5333376,-55.224136)">
      <g
         style="fill:#ff8c2d;fill-opacity:1"
         transform="matrix(-5.9999999,0,0,-5.9999999,8.0000033,832.33261)"
         id="g3389">
        <path
           sodipodi:nodetypes="ssscccs"
           inkscape:connector-curvature="0"
           id="path3391"
           style="fill:#ff8c2d;fill-opacity:1;fill-rule:nonzero;stroke:none"
           d="m 0,-1.6 c 0,1.359 -1.12,2.462 -2.5,2.462 l -17.3,0 c -1.38,0 -2.5,-1.103 -2.5,-2.462 0,0 -0.325,-3.857 -2.5,-4.061 l 24.8,0 z" />
      </g>
      <rect
         y="854.53473"
         x="32.535866"
         height="46.285717"
         width="114.85714"
         id="rect3455"
         style="opacity:1;fill:#ffffff;fill-opacity:1;stroke:none;stroke-width:1;stroke-miterlimit:4;stroke-dasharray:none;stroke-opacity:1" />
      <g
         style="fill:#ffba55;fill-opacity:1"
         transform="matrix(-5.9999999,0,0,-5.9999999,128,847.10164)"
         id="g3385">
        <path
           sodipodi:nodetypes="cccsssssscccc"
           inkscape:connector-curvature="0"
           id="path3387"
           style="fill:#ffba55;fill-opacity:1;fill-rule:nonzero;stroke:none"
           d="m 0,-3.2 c 0,0 0,0 -0.08363292,1.4406911 C -0.39104539,-1.1397634 -0.96184288,-0.25640243 -2.140464,0 L -17.5,0 C -18.88,0 -20,-1.063 -20,-2.422 l 0,-22.193 c 0,-1.359 1.12,-2.462 2.5,-2.462 l 35,0 c 1.38,0 2.5,1.103 2.5,2.462 l 0,19.692 0,2.501 0,-0.778 z" />
      </g>
      <path
         inkscape:connector-curvature="0"
         id="path3459"
         d="m 127.99994,885.91347 -43.340625,41.24064 10.246877,0 c -0.0032,0.0725 -0.03744,0.13296 -0.03744,0.2064 l 0,41.01567 c 0,2.6592 2.1408,4.8 4.8,4.8 l 17.203128,0 0,-34.5469 21.31875,0 0,34.5469 17.63437,0 c 2.6592,0 4.8,-2.1408 4.8,-4.8 l 0,-41.01567 c 0,-0.0734 -0.0341,-0.13392 -0.0374,-0.2064 l 10.75313,0 -12.2625,-11.66251 c 0.005,-0.0619 0.0374,-0.11472 0.0374,-0.17808 l 0,-21.26251 c 0,-1.3296 -1.0704,-2.4 -2.4,-2.4 l -5.81251,0 c -1.3296,0 -2.4,1.0704 -2.4,2.4 l 0,11.37187 L 128,885.91352 Z"
         style="opacity:1;fill:#000000;fill-opacity:0.23529412;stroke:none;stroke-width:1;stroke-miterlimit:4;stroke-dasharray:none;stroke-opacity:1" />
    </g>
  </g>
</svg>
