<?xml version="1.0" encoding="UTF-8"?>
<svg xmlns="http://www.w3.org/2000/svg" xmlns:xlink="http://www.w3.org/1999/xlink" viewBox="0 0 48 48" width="48px" height="48px">
<g id="surface29047945">
<path style=" stroke:none;fill-rule:nonzero;fill:rgb(37.64706%,49.019608%,54.509807%);fill-opacity:1;" d="M 40.378906 27.359375 C 40.484375 26.625 40.589844 25.890625 40.589844 25.050781 C 40.589844 24.210938 40.484375 23.476562 40.378906 22.738281 L 45.105469 19.378906 C 45.523438 19.066406 45.734375 18.433594 45.421875 17.910156 L 40.800781 10.140625 C 40.484375 9.613281 39.960938 9.40625 39.433594 9.71875 L 34.183594 12.136719 C 32.925781 11.191406 31.664062 10.453125 30.195312 9.824219 L 29.671875 4.050781 C 29.566406 3.523438 29.144531 3.105469 28.621094 3.105469 L 19.589844 3.105469 C 19.066406 3.105469 18.539062 3.523438 18.539062 4.050781 L 18.015625 9.824219 C 16.546875 10.453125 15.179688 11.191406 14.023438 12.136719 L 8.773438 9.71875 C 8.25 9.511719 7.621094 9.71875 7.410156 10.140625 L 2.894531 17.910156 C 2.578125 18.433594 2.789062 19.066406 3.210938 19.378906 L 7.933594 22.738281 C 7.828125 23.476562 7.726562 24.210938 7.726562 25.050781 C 7.726562 25.890625 7.828125 26.625 7.933594 27.359375 L 3 30.71875 C 2.578125 31.035156 2.371094 31.664062 2.683594 32.191406 L 7.199219 39.960938 C 7.515625 40.484375 8.039062 40.695312 8.566406 40.378906 L 13.816406 37.964844 C 15.074219 38.910156 16.335938 39.644531 17.804688 40.273438 L 18.328125 46.050781 C 18.433594 46.574219 18.855469 46.996094 19.378906 46.996094 L 28.410156 46.996094 C 28.933594 46.996094 29.460938 46.574219 29.460938 46.050781 L 29.984375 40.273438 C 31.453125 39.644531 32.820312 38.910156 33.976562 37.964844 L 39.226562 40.378906 C 39.75 40.589844 40.378906 40.378906 40.589844 39.960938 L 45.105469 32.191406 C 45.421875 31.664062 45.210938 31.035156 44.789062 30.71875 Z M 24 35.550781 C 18.226562 35.550781 13.5 30.824219 13.5 25.050781 C 13.5 19.273438 18.226562 14.550781 24 14.550781 C 29.773438 14.550781 34.5 19.273438 34.5 25.050781 C 34.5 30.824219 29.773438 35.550781 24 35.550781 Z M 24 35.550781 "/>
<path style=" stroke:none;fill-rule:nonzero;fill:rgb(27.058825%,35.294119%,39.215687%);fill-opacity:1;" d="M 24 12.449219 C 17.070312 12.449219 11.398438 18.121094 11.398438 25.050781 C 11.398438 31.980469 17.070312 37.648438 24 37.648438 C 30.929688 37.648438 36.601562 31.980469 36.601562 25.050781 C 36.601562 18.121094 30.929688 12.449219 24 12.449219 Z M 24 30.300781 C 21.058594 30.300781 18.75 27.988281 18.75 25.050781 C 18.75 22.109375 21.058594 19.800781 24 19.800781 C 26.941406 19.800781 29.25 22.109375 29.25 25.050781 C 29.25 27.988281 26.941406 30.300781 24 30.300781 Z M 24 30.300781 "/>
</g>
</svg>
