<?xml version="1.0" encoding="UTF-8"?>
<svg xmlns="http://www.w3.org/2000/svg" xmlns:xlink="http://www.w3.org/1999/xlink" viewBox="0 0 48 48" width="48px" height="48px">
<g id="surface29020028">
<path style=" stroke:none;fill-rule:nonzero;fill:rgb(100%,62.7451%,0%);fill-opacity:1;" d="M 38.980469 11.160156 L 21.859375 11.160156 L 17.578125 6.878906 L 6.878906 6.878906 C 4.527344 6.878906 2.601562 8.804688 2.601562 11.160156 L 2.601562 36.839844 C 2.601562 39.195312 4.527344 41.121094 6.878906 41.121094 L 40.050781 41.121094 C 41.867188 41.121094 43.261719 39.730469 43.261719 37.910156 L 43.261719 15.441406 C 43.261719 13.085938 41.335938 11.160156 38.980469 11.160156 Z M 38.980469 11.160156 "/>
<path style=" stroke:none;fill-rule:nonzero;fill:rgb(100%,79.215688%,15.686275%);fill-opacity:1;" d="M 43.472656 17.578125 L 14.691406 17.578125 C 12.65625 17.578125 10.839844 19.078125 10.519531 21.109375 L 6.878906 41.121094 L 40.800781 41.121094 C 42.832031 41.121094 44.652344 39.621094 44.972656 37.589844 L 47.648438 22.609375 C 48.183594 20.039062 46.148438 17.578125 43.472656 17.578125 Z M 43.472656 17.578125 "/>
</g>
</svg>
