<?xml version="1.0" encoding="UTF-8"?>
<svg xmlns="http://www.w3.org/2000/svg" xmlns:xlink="http://www.w3.org/1999/xlink" viewBox="0 0 48 48" width="48px" height="48px">
<g id="surface60631274">
<path style=" stroke:none;fill-rule:nonzero;fill:rgb(100%,43.921569%,26.274511%);fill-opacity:1;" d="M 40.378906 47.398438 L 9.960938 47.398438 L 9.960938 0.601562 L 40.378906 0.601562 C 42.953125 0.601562 45.058594 2.707031 45.058594 5.28125 L 45.058594 42.71875 C 45.058594 45.292969 42.953125 47.398438 40.378906 47.398438 Z M 40.378906 47.398438 "/>
<path style=" stroke:none;fill-rule:nonzero;fill:rgb(74.901962%,21.176471%,4.705882%);fill-opacity:1;" d="M 7.621094 0.601562 L 9.960938 0.601562 L 9.960938 47.398438 L 7.621094 47.398438 C 5.046875 47.398438 2.941406 45.292969 2.941406 42.71875 L 2.941406 5.28125 C 2.941406 2.707031 5.046875 0.601562 7.621094 0.601562 Z M 7.621094 0.601562 "/>
<path style=" stroke:none;fill-rule:nonzero;fill:rgb(67.058825%,18.82353%,4.313726%);fill-opacity:1;" d="M 26.339844 14.640625 C 23.753906 14.640625 21.660156 16.734375 21.660156 19.320312 C 21.660156 21.90625 23.753906 24 26.339844 24 C 28.925781 24 31.019531 21.90625 31.019531 19.320312 C 31.019531 16.734375 28.925781 14.640625 26.339844 14.640625 Z M 34.53125 31.019531 C 34.53125 31.019531 32.308594 26.339844 26.339844 26.339844 C 20.371094 26.339844 18.148438 31.019531 18.148438 31.019531 L 18.148438 33.359375 L 34.53125 33.359375 Z M 34.53125 31.019531 "/>
</g>
</svg>
