<?xml version="1.0" encoding="UTF-8"?>
<svg xmlns="http://www.w3.org/2000/svg" xmlns:xlink="http://www.w3.org/1999/xlink" viewBox="0 0 48 48" width="48px" height="48px">
<g id="surface60619062">
<path style=" stroke:none;fill-rule:nonzero;fill:rgb(22.352941%,28.627452%,67.058825%);fill-opacity:1;" d="M 24 34.699219 C 22.179688 34.699219 20.789062 36.089844 20.789062 37.910156 C 20.789062 39.730469 22.179688 41.121094 24 41.121094 C 25.820312 41.121094 27.210938 39.730469 27.210938 37.910156 C 27.210938 36.089844 25.820312 34.699219 24 34.699219 Z M 24 34.699219 "/>
<path style=" stroke:none;fill-rule:nonzero;fill:rgb(22.352941%,28.627452%,67.058825%);fill-opacity:1;" d="M 0.460938 9.019531 L 47.539062 9.019531 L 47.539062 38.980469 L 0.460938 38.980469 Z M 0.460938 9.019531 "/>
<path style=" stroke:none;fill-rule:nonzero;fill:rgb(93.725491%,92.156863%,91.37255%);fill-opacity:1;" d="M 2.601562 6.878906 C 2.601562 6.878906 12.230469 6.878906 16.511719 6.878906 C 20.789062 6.878906 22.929688 6.878906 22.929688 9.019531 C 22.929688 12.230469 22.929688 38.980469 22.929688 38.980469 C 22.929688 36.839844 18.648438 36.839844 16.511719 36.839844 C 12.230469 36.839844 2.601562 36.839844 2.601562 36.839844 C 2.601562 32.558594 2.601562 6.878906 2.601562 6.878906 Z M 45.398438 36.839844 C 45.398438 36.839844 36.839844 36.839844 32.558594 36.839844 C 30.421875 36.839844 25.070312 36.839844 25.070312 38.980469 C 25.070312 11.160156 25.070312 12.550781 25.070312 9.019531 C 25.070312 6.878906 28.28125 6.878906 32.558594 6.878906 C 36.839844 6.878906 45.398438 6.878906 45.398438 6.878906 C 45.398438 6.878906 45.398438 32.558594 45.398438 36.839844 Z M 45.398438 36.839844 "/>
<path style=" stroke:none;fill-rule:nonzero;fill:rgb(73.725492%,66.666669%,64.313728%);fill-opacity:1;" d="M 22.929688 9.019531 L 25.070312 9.019531 L 25.070312 38.980469 L 22.929688 38.980469 Z M 22.929688 9.019531 "/>
</g>
</svg>
