<?xml version="1.0" encoding="UTF-8"?>
<svg xmlns="http://www.w3.org/2000/svg" xmlns:xlink="http://www.w3.org/1999/xlink" viewBox="0 0 48 48" width="48px" height="48px">
<g id="surface60683104">
<path style=" stroke:none;fill-rule:nonzero;fill:rgb(100%,34.117648%,13.333334%);fill-opacity:1;" d="M 33.28125 13.558594 L 33.28125 46.039062 L 7.761719 46.039062 C 5.207031 46.039062 3.121094 43.953125 3.121094 41.398438 L 3.121094 13.558594 Z M 33.28125 13.558594 "/>
<path style=" stroke:none;fill-rule:nonzero;fill:rgb(100%,80.000001%,73.725492%);fill-opacity:1;" d="M 12.398438 1.960938 L 12.398438 41.398438 C 12.398438 43.953125 10.3125 46.039062 7.761719 46.039062 L 41.398438 46.039062 C 43.953125 46.039062 46.039062 43.953125 46.039062 41.398438 L 46.039062 1.960938 Z M 12.398438 1.960938 "/>
<path style=" stroke:none;fill-rule:nonzero;fill:rgb(100%,34.117648%,13.333334%);fill-opacity:1;" d="M 19.359375 7.761719 L 40.238281 7.761719 L 40.238281 12.398438 L 19.359375 12.398438 Z M 19.359375 15.878906 L 28.640625 15.878906 L 28.640625 18.199219 L 19.359375 18.199219 Z M 30.960938 15.878906 L 40.238281 15.878906 L 40.238281 18.199219 L 30.960938 18.199219 Z M 19.359375 20.519531 L 28.640625 20.519531 L 28.640625 22.839844 L 19.359375 22.839844 Z M 30.960938 20.519531 L 40.238281 20.519531 L 40.238281 22.839844 L 30.960938 22.839844 Z M 19.359375 25.160156 L 28.640625 25.160156 L 28.640625 27.480469 L 19.359375 27.480469 Z M 30.960938 25.160156 L 40.238281 25.160156 L 40.238281 27.480469 L 30.960938 27.480469 Z M 19.359375 29.800781 L 28.640625 29.800781 L 28.640625 32.121094 L 19.359375 32.121094 Z M 30.960938 29.800781 L 40.238281 29.800781 L 40.238281 32.121094 L 30.960938 32.121094 Z M 19.359375 34.441406 L 28.640625 34.441406 L 28.640625 36.761719 L 19.359375 36.761719 Z M 30.960938 34.441406 L 40.238281 34.441406 L 40.238281 36.761719 L 30.960938 36.761719 Z M 19.359375 39.078125 L 28.640625 39.078125 L 28.640625 41.398438 L 19.359375 41.398438 Z M 30.960938 39.078125 L 40.238281 39.078125 L 40.238281 41.398438 L 30.960938 41.398438 Z M 30.960938 39.078125 "/>
</g>
</svg>
