<?xml version="1.0" encoding="UTF-8"?>
<svg xmlns="http://www.w3.org/2000/svg" xmlns:xlink="http://www.w3.org/1999/xlink" viewBox="0 0 48 48" width="48px" height="48px">
<g id="surface29120808">
<path style=" stroke:none;fill-rule:nonzero;fill:rgb(70.19608%,89.803922%,98.823529%);fill-opacity:1;" d="M 10.921875 16.371094 C 4.898438 16.371094 0.0195312 21.25 0.0195312 27.269531 C 0.0195312 33.289062 4.898438 38.171875 10.921875 38.171875 C 16.941406 38.171875 21.820312 33.289062 21.820312 27.269531 C 21.820312 21.25 16.941406 16.371094 10.921875 16.371094 Z M 10.921875 16.371094 "/>
<path style=" stroke:none;fill-rule:nonzero;fill:rgb(70.19608%,89.803922%,98.823529%);fill-opacity:1;" d="M 24 7.648438 C 16.777344 7.648438 10.921875 13.507812 10.921875 20.730469 C 10.921875 27.953125 16.777344 33.808594 24 33.808594 C 31.222656 33.808594 37.078125 27.953125 37.078125 20.730469 C 37.078125 13.507812 31.222656 7.648438 24 7.648438 Z M 24 7.648438 "/>
<path style=" stroke:none;fill-rule:nonzero;fill:rgb(70.19608%,89.803922%,98.823529%);fill-opacity:1;" d="M 38.714844 19.640625 C 33.597656 19.640625 29.449219 23.789062 29.449219 28.90625 C 29.449219 34.023438 33.597656 38.171875 38.714844 38.171875 C 43.832031 38.171875 47.980469 34.023438 47.980469 28.90625 C 47.980469 23.789062 43.832031 19.640625 38.714844 19.640625 Z M 38.714844 19.640625 "/>
<path style=" stroke:none;fill-rule:nonzero;fill:rgb(70.19608%,89.803922%,98.823529%);fill-opacity:1;" d="M 10.921875 27.269531 L 38.171875 27.269531 L 38.171875 38.171875 L 10.921875 38.171875 Z M 10.921875 27.269531 "/>
<path style=" stroke:none;fill-rule:nonzero;fill:rgb(24.705882%,31.764707%,70.980394%);fill-opacity:1;" d="M 21.820312 21.820312 L 26.179688 21.820312 L 26.179688 32.71875 L 21.820312 32.71875 Z M 21.820312 21.820312 "/>
<path style=" stroke:none;fill-rule:nonzero;fill:rgb(24.705882%,31.764707%,70.980394%);fill-opacity:1;" d="M 24 16.371094 L 17.460938 24 L 30.539062 24 Z M 24 16.371094 "/>
</g>
</svg>
