<?xml version="1.0" encoding="utf-8"?>
<!-- Generator: Adobe Illustrator 25.3.1, SVG Export Plug-In . SVG Version: 6.00 Build 0)  -->
<svg version="1.1" id="OBJECTS" xmlns="http://www.w3.org/2000/svg" xmlns:xlink="http://www.w3.org/1999/xlink" x="0px" y="0px"
	 viewBox="0 0 498.4 450.1" style="enable-background:new 0 0 498.4 450.1;" xml:space="preserve">
<style type="text/css">
	.st0{opacity:0.17;fill:#003366;enable-background:new    ;}
	.st1{opacity:0.17;fill:#666666;enable-background:new    ;}
	.st2{fill:#393762;}
	.st3{opacity:0.5;}
	.st4{fill:#FFFFFF;}
	.st5{fill:#1DBFFF;}
	.st6{opacity:0.8;}
	.st7{opacity:0.53;}
	.st8{fill:#1AE5FF;}
	.st9{opacity:0.67;}
	.st10{opacity:0.37;}
	.st11{fill:#8ED2FF;}
	.st12{fill:#F9FBFC;}
	.st13{fill:#003366;}
	.st14{fill:#F9FBFC;stroke:#CCCCCC;stroke-miterlimit:10;}
	.st15{opacity:0.32;fill:url(#SVGID_1_);enable-background:new    ;}
	.st16{fill:#EDBA8F;}
	.st17{fill:#B9000A;}
	.st18{fill:#140000;}
	.st19{fill:#A20016;}
	.st20{fill:#C71618;}
	.st21{fill:#17000D;}
	.st22{opacity:0.32;fill:url(#SVGID_2_);enable-background:new    ;}
	.st23{fill:#FFB699;}
	.st24{fill:#5167B0;}
	.st25{fill:#B9001F;}
	.st26{fill:#A20012;}
	.st27{fill:#EFA389;}
	.st28{fill:#730003;}
	.st29{fill:#FF9D6F;}
	.st30{fill:#450017;}
	.st31{fill:#FF0000;}
	.st32{fill:#FF0033;}
	.st33{fill:#CFE3FF;}
	.st34{fill:#B1CAE8;}
	.st35{fill:#00CCFF;}
	.st36{opacity:0.32;enable-background:new    ;}
	.st37{fill:#000033;}
	.st38{fill:#45000F;}
	.st39{fill:#170010;}
	.st40{fill:none;}
	.st41{fill:#00C5F3;}
	.st42{fill:#D60280;}
	.st43{fill:#F8CB00;}
	.st44{fill:#008B00;}
	.st45{fill:#8A166A;}
	.st46{fill:#FF6400;}
	.st47{fill:#FFD800;}
	.st48{fill:#0045B9;}
	.st49{fill:#FF008E;}
	.st50{fill:#A9DB00;}
</style>
<path class="st0" d="M386.3,87.1C360.4,7.8,244.1,24.9,216.7,65.2c-27.3,36.3-27.3,84.6-72.2,101.5c-66.4,29.5-185,74.2-99.6,182.6
	c100,126.9,240.3,106.8,285.3,20.1s88-98,138.8-140.7c50.8-42.7,31.2-75.4-23.5-81.2C400.5,142.8,399.3,126.9,386.3,87.1z"/>
<path class="st1" d="M259.1,273.6c-53.9-38.4-108.5,0-200.2-4.7c-16.4-0.8-29.6-5.6-40.1-13c18.3-43.9,81.4-68.9,123.3-87.7
	c44.6-17,44.6-65.6,71.7-101.9c21.1-31.4,95.2-48.8,139.4-17.9c-0.2,0.4-0.3,0.8-0.5,1.3c-28.9,70.3-6.5,67.4,18.4,129.3
	S312.9,312,259.1,273.6z"/>
<path class="st0" d="M114.9,39.8c0,0-14.5,43,15.8,46s44.3-42.6,20.1-62.2S114.9,39.8,114.9,39.8z"/>
<path class="st0" d="M376.8,418.7c15.4,4.7,14.2,27.9-1.5,31.1c-4.9,1-10.5-0.4-16-5.9c-12.1-12.2-1.7-22.6,9.8-25.4
	c2.5-0.6,5.1-0.6,7.5,0.1C376.6,418.7,376.7,418.7,376.8,418.7z"/>
<path class="st0" d="M84.8,94.4c1.9-5.3,7.7-8.1,13-6.2c5.3,1.9,8.1,7.7,6.2,13c-1.9,5.3-7.7,8.1-13,6.2c0,0,0,0,0,0
	c-5.3-1.8-8.1-7.6-6.2-12.9C84.8,94.5,84.8,94.5,84.8,94.4z"/>
<path class="st0" d="M377.5,373.8c0-5.6,4.5-10.1,10.1-10.1c0,0,0.1,0,0.1,0c5.6,0,10.2,4.6,10.2,10.2c0,5.6-4.5,10.1-10.1,10.1
	c0,0-0.1,0-0.1,0C382.1,384,377.5,379.5,377.5,373.8z"/>
<path class="st0" d="M286.9,274.2c0-3.8,2.6-6.8,5.9-6.8s5.9,3.1,5.9,6.9s-2.6,6.8-5.9,6.8S286.9,278,286.9,274.2z"/>
<path class="st2" d="M90.2,177.4c-3.3,9.8-2.9,20.4,1.3,29.9c4.3,9.3,12.7,16.7,22.7,19c5.8,1.5,12,0.9,17.5-1.6
	c5.5-2.5,9.6-7.2,11.4-13c1.7-5.9,0.2-12.1-3.8-16.7c-3.1-3.2-8.5-5-11.2-8.5c-4.6-6.2-1.6-15.6-6.2-21.8
	c-4.2-5.7-12.8-6.7-19.1-3.5C96.5,164.4,92.4,170.7,90.2,177.4z"/>
<g class="st3">
	<path class="st4" d="M216.5,289.3c-3.2,1.8-3.2,4.8,0,6.7l105.8,61.4c3.6,1.8,7.9,1.8,11.5,0l24.8-11.6c3.2-1.8,3.2-4.8,0-6.7
		l-105.8-61.5c-3.6-1.8-7.9-1.8-11.5,0L216.5,289.3z"/>
</g>
<path class="st5" d="M187.3,32.3v2.6c0,1.1,0.9,2,2,2c0.3,0,0.7-0.1,1-0.3l12.5-7.2c0.6-0.4,1-1.1,1-1.8V25c0-1.1-0.9-2-2-2
	c-0.3,0-0.7,0.1-1,0.3l-12.5,7.2C187.7,30.9,187.3,31.5,187.3,32.3z"/>
<path class="st5" d="M147.9,68.2v2.6c0,1.1,0.9,2,2,2c0.3,0,0.7-0.1,1-0.3l51.9-30c0.6-0.4,1-1.1,1-1.8v-2.6c0-1.1-0.9-2-2-2
	c-0.3,0-0.7,0.1-1,0.3l-51.9,30C148.2,66.7,147.9,67.4,147.9,68.2z"/>
<g class="st6">
	<path class="st4" d="M169.4,82.1v2.6c0,1.1,0.9,2,2,2c0.3,0,0.7-0.1,1-0.3l30.5-17.6c0.6-0.4,1-1.1,1-1.8v-2.6c0-1.1-0.9-2-2-2
		c-0.3,0-0.7,0.1-1,0.3l-30.5,17.7C169.7,80.7,169.4,81.4,169.4,82.1z"/>
</g>
<g class="st7">
	<path class="st8" d="M156,76.7v2.6c0,1.1,0.9,2,2,2c0.3,0,0.7-0.1,1-0.3l43.9-25.3c0.6-0.4,1-1.1,1-1.8v-2.6c0-1.1-0.9-2-2-2
		c-0.3,0-0.7,0.1-1,0.3L157,74.9C156.4,75.3,156,75.9,156,76.7z"/>
</g>
<path class="st5" d="M427.5,72.3c0.6,0.4,1,1.1,1,1.8l-0.1,18c0,0.7-0.5,0.9-1,0.6l-22.8-13.1c-0.6-0.4-1-1.1-1-1.8l0.1-18
	c0-0.7,0.5-0.9,1-0.6L427.5,72.3z"/>
<g class="st9">
	<path class="st4" d="M435.8,104.3c0.6,0.4,1,1.1,1,1.8l-0.1,18c0,0.7-0.5,0.9-1,0.6L413,111.5c-0.6-0.4-1-1.1-1-1.8l0.1-18
		c0-0.7,0.5-0.9,1-0.6L435.8,104.3z"/>
</g>
<g class="st10">
	<path class="st11" d="M204.2,121.3c0.4,0.2,0.7,0.7,0.7,1.2v11.6c0,0.4-0.3,0.6-0.7,0.4l-14.7-8.5c-0.4-0.2-0.7-0.7-0.7-1.2v-11.6
		c0-0.4,0.3-0.6,0.7-0.4L204.2,121.3z"/>
</g>
<path class="st4" d="M209.6,142c0.4,0.2,0.7,0.7,0.7,1.2v11.6c0,0.4-0.3,0.6-0.7,0.4l-14.7-8.5c-0.4-0.2-0.7-0.7-0.7-1.2v-11.6
	c0-0.4,0.3-0.6,0.7-0.4L209.6,142z"/>
<path class="st12" d="M356.1,56c12.8,6.9,23.2,23.4,23.1,37.1l-0.7,220.3c0,13.6-10.5,19.1-23.3,12.3l-99.1-53
	c-12.8-6.9-23.2-23.4-23.1-37.1l0.7-220.3c0-13.7,10.5-19.1,23.3-12.3L356.1,56z"/>
<path class="st13" d="M319.6,51.6c1.8,1.1,2.9,3,2.9,5.1c0,1.9-1.3,2.6-3,1.7l-26.8-15.5c-1.8-1.1-2.9-3-2.9-5.1
	c0-1.9,1.3-2.6,3-1.7L319.6,51.6z"/>
<path class="st14" d="M366.4,108.8c1.3,0.7,2.2,2,2.3,3.5l-0.6,175.3c0,1.3-1,1.8-2.4,1.2l-124.3-63.5c-1.3-0.7-2.2-2-2.3-3.5
	l0.6-175.3c0-1.3,1-1.8,2.4-1.2L366.4,108.8z"/>
<path class="st12" d="M385.3,168.5L385.3,168.5c-0.8,0-1.5-0.6-1.5-1.4c0,0,0,0,0-0.1v-46.4c0-0.8,0.6-1.5,1.4-1.5c0,0,0,0,0.1,0
	l0,0c0.8,0,1.5,0.6,1.5,1.4c0,0,0,0,0,0.1V167C386.8,167.8,386.1,168.5,385.3,168.5z"/>
<path class="st12" d="M385.1,223.1L385.1,223.1c-0.8,0-1.5-0.6-1.5-1.4c0,0,0,0,0-0.1v-46.5c0-0.8,0.6-1.5,1.4-1.5c0,0,0,0,0.1,0
	l0,0c0.8,0,1.5,0.6,1.5,1.4c0,0,0,0,0,0.1v46.4C386.6,222.4,385.9,223.1,385.1,223.1z"/>
<path class="st12" d="M385.1,274.4L385.1,274.4c-0.8,0-1.5-0.6-1.5-1.4c0,0,0,0,0-0.1v-24.1c0-0.8,0.6-1.5,1.4-1.5c0,0,0,0,0.1,0
	l0,0c0.8,0,1.5,0.6,1.5,1.4c0,0,0,0,0,0.1v24.1C386.5,273.7,385.9,274.3,385.1,274.4z"/>
<path class="st4" d="M301.6,87.7c6.7,3.9,12.1,13.2,12.2,21v0.2c-0.3,0.1-5.6,2.2-12.4-1.5c-0.1,0-0.1,0-0.2-0.1
	c-5.3-3.1-9.7-9.2-11.2-11.5c-0.2-0.3-0.4-0.6-0.6-1C289.3,87,294.8,83.8,301.6,87.7z"/>
<linearGradient id="SVGID_1_" gradientUnits="userSpaceOnUse" x1="200.65" y1="666.46" x2="279.85" y2="666.46" gradientTransform="matrix(1 0 0 1 -0.79 -303.1)">
	<stop  offset="0" style="stop-color:#5155D4"/>
	<stop  offset="1" style="stop-color:#45F7FF"/>
</linearGradient>
<ellipse class="st15" cx="239.5" cy="363.4" rx="39.6" ry="23.5"/>
<path class="st16" d="M279.7,203.5c1.1-0.7,2.1-1.5,3-2.4c0.6-0.8,1.4-5.3,0.6-5.5c-0.8-0.2-1.4,3-1.4,3s-0.2-8.3-1.2-9.5
	c-1-1.2-4.1,4.7-4.3,5.7s-1,5.1-1,5.1S276.5,203.5,279.7,203.5z"/>
<path class="st17" d="M219.5,227.3c0,0-6.2,6.2-1.8,13.7s33.9-11,37-13.8c3.1-2.8,23.8-21.3,25-23.6c1.2-2.3-1.4-4.7-4.5-4.3
	s-15.8,13.8-25.6,20.1C249.5,219.3,226,224.6,219.5,227.3z"/>
<path class="st2" d="M223.1,358.3c0,0-0.5,3.7,0.2,5.3c1.2,1.7,3.5,2.2,5.3,1c0,0,0,0,0,0c1.8-1.5,3.5-3,5.1-4.7
	c0,0,5.4-2.9,5.9-4.4s-1.4-2.9-2.9-2.5s-5.9,3.1-8,3.1C226.6,355.9,223.8,356.4,223.1,358.3z"/>
<path class="st18" d="M217.5,278.9c0,0,4.7,78.3,5.3,80.6s6.7,3.6,7.9,0c0.7-2.3,2.5-74.8,2.5-74.8L217.5,278.9z"/>
<path class="st2" d="M238.8,363c-0.3,0.2-0.4,0.6-0.4,0.9c0,1.1,0,3.5,0.6,4.4c1.4,1.8,3.9,2.2,5.9,1.1c3.6-2.3,7-4.7,10.3-7.4
	c0.7-0.6,1.2-1.3,1.4-2.2c0.2-0.6-0.1-1.2-0.7-1.4c-1.3-0.6-2.7-0.8-4.1-0.5c-2.2,0.8-5.1,3.2-8.1,3
	C241.8,361,240.1,361.7,238.8,363z"/>
<path d="M249.3,279.8c-0.3-3.3-4.2-4.3-7.8-3.2c-6.8-0.4-17.4-0.1-17.8,5.2c-0.6,7.9,3.1,13.5,6.7,17.3c2.6,2.8,4.4,8.2,5.1,10.8
	c0.6,20.8,2,50.1,2.9,52.9c1.4,4.5,8.2,4.3,8.5-0.1C248.2,347.8,249.3,279.8,249.3,279.8z"/>
<path class="st19" d="M249.3,282.2c-0.8,4-12.3,6-19,5s-13.9-4.4-13.7-12.1c0,0,1.3-18.6,0.8-21.9s-1.8-9.2-1.8-15.3
	c0.1-3.8,1.4-7.6,3.8-10.6c0,0,3.8-4.3,15.5-1.9c0,0,9.6,2.1,14,9.2c0,0,3.1,7.8,2,24.1C250,275,249.3,282.2,249.3,282.2z"/>
<path class="st16" d="M225.8,216.8c0,0,1,5.9,0,8.6c-0.2,1.4,5.8,5.9,11,4.7c3.1-0.7,2.9-2.2,2.9-2.2s-2.5-4.2-2.2-8.3
	S229.4,215.9,225.8,216.8z"/>
<path class="st16" d="M245.6,204.8c0,7.7-6.3,14-14,14s-14-6.3-14-14c0-7.7,6.3-14,14-14l0,0C239.3,190.8,245.6,197,245.6,204.8z"/>
<path class="st16" d="M245.6,205.8c0,0,0.2,14-2.9,16.8s-7.7-2.6-15.2-4.4s6.1-16.5,6.1-16.5L245.6,205.8z"/>
<path class="st16" d="M276.7,226.5c0,0-1.3-5.5-0.9-5.9s2.2,1.9,2.2,1.9s0.9-5.6,1.6-6.2c0.7-0.6,3.7,2.4,4.1,4s-1.8,8.1-2.7,8.3
	S277.1,229.1,276.7,226.5z"/>
<path class="st20" d="M244.8,232.1c0,0-6.2,3-3.5,10.6s22.5,10.6,24.8,8.3s12.7-14.5,15.7-23.6c0,0-1.2-3.5-5.9-2.1
	c0,0-11.2,14.2-13,15.7S247.8,231.5,244.8,232.1z"/>
<path class="st21" d="M219.7,194.2c3.1-3.4,7.3-5.4,11.9-5.8c7.5-0.5,7.1,2.1,14,1.7c2.9-0.2,3.9,2.3,3.6,6
	c-0.2,2.7-3.5,6.4-8.4,6.4h-4.7c0,0,3.9,1.7,4.4,5.1c0.5,3.4-0.2,3.3-0.2,3.3c-1-0.8-2.3-0.9-3.4-0.4c-1.8,0.8-1.9,6.1-0.2,7l1.7,1
	c0,0-3.3,6-5,6.3s-7.6-4.1-7.6-4.1s-8.1-5.2-9.1-12.8C216.1,203.1,217.2,198.3,219.7,194.2z"/>
<linearGradient id="SVGID_2_" gradientUnits="userSpaceOnUse" x1="78.34" y1="632.44" x2="157.54" y2="632.44" gradientTransform="matrix(1 0 0 1 -0.79 -303.1)">
	<stop  offset="0" style="stop-color:#5155D4"/>
	<stop  offset="1" style="stop-color:#45F7FF"/>
</linearGradient>
<ellipse class="st22" cx="117.2" cy="329.3" rx="39.6" ry="23.5"/>
<path class="st23" d="M97.1,265.2c0,0,2.8,16.8,5,26.2c0,0,0.4,15.5,0.9,20.8s1.8,16.8,1.8,16.8c1,0.7,2.3,0.9,3.4,0.4
	c0,0,2.2-33,2.8-38.3s2-29.3,2-29.3S107.8,257.2,97.1,265.2z"/>
<path class="st23" d="M114.2,258.5c0,0,2.8,16.8,5,26.2c0,0,0.4,15.5,0.9,20.8s1.8,16.8,1.8,16.8c1,0.7,2.3,0.9,3.4,0.4
	c0,0,2.2-33,2.8-38.3c0.5-5.3,0.7-29,0.7-29S124.8,250.5,114.2,258.5z"/>
<path d="M100.5,242.7c0,0-6.6,6.9-2.8,30.1c0.2,3.3,2.5,11.9,2.5,11.9c6.4,0.6,12.8-0.2,18.9-2.4c10.3-3.8,10.5-5.8,10.5-5.8
	s0.4-29.2-1.9-36.7C125.4,232.3,100.5,242.7,100.5,242.7z"/>
<path class="st24" d="M125.3,321.2c0,1.2,0.6,2.4,1.6,3c1.8,1.3,5.2,3.8,5.8,5.2c0,1.1-4.3-0.1-6.2-1.1c-1.4-0.9-2.7-2-3.8-3.3
	l0.1,1c-0.5,0-0.9-0.2-1.2-0.6c-0.6-0.6,0.1-4,0.1-4L125.3,321.2z"/>
<path class="st24" d="M108.4,328.9c0,1.2,0.6,2.4,1.6,3c1.8,1.3,5.2,3.8,5.8,5.2c0,1.1-4.3-0.1-6.2-1.1c-1.4-0.9-2.7-2-3.8-3.3
	l0.1,1c-0.5,0-0.9-0.2-1.2-0.6c-0.6-0.6,0.1-4,0.1-4L108.4,328.9z"/>
<path class="st25" d="M124.1,198.4c0,0,6,0.7,9.8,13.3c2.2,8.3,5.5,9,9.2,9.8s19.4,0,20.7,0s2.7,2.7,1,4.7s-23.4,4-27.7,4
	s-14-8-17.9-14.5S118.9,197.9,124.1,198.4z"/>
<path class="st26" d="M106.7,195.8c0,0-12.3,8.8-13.5,11.7s-2.9,12,1.1,16.5c6.9,7.7,2.8,21,3.7,25s10.3,4.4,16.8,3.1
	s12.6-4.6,12.3-12.2s1.8-18.1,2.2-21.5c0.4-6-0.2-12-1.6-17.8c-0.3-1.2-4.4-2.5-4.4-2.5S118.9,195.2,106.7,195.8z"/>
<path class="st27" d="M117.4,194.1v0.4c0.1,0.9,0.6,3.2,0.7,4.2s-1,2.5-3.5,2.5s-6.7-1.1-8.1-4.1c0-2.9-0.1-5.9-0.4-8.8L117.4,194.1
	z"/>
<path class="st23" d="M124.3,177.5c-1.3-7.1-7-11.2-13.4-9.7c0,0-6.9,0.7-10,6.8s1.4,11.2,4.3,14.5c1.2,1.3,2.1,2.4,2.7,3
	c0.2,0.2,0.4,0.5,0.6,0.7l0.1,0.1l0,0c1.7,1.6,3.7,2.9,5.9,3.6c2.8,0.8,6.1,0.4,7.9-1.5S125.7,184.6,124.3,177.5z"/>
<path class="st28" d="M97.2,225.9l15,4.8l14-3.9c-0.2,0.6-3.9,12.1-12,14.2c-5.7,1.5-12.6-3.6-16-6.7c-0.2-2.1-0.7-4.2-1.5-6.2
	L97.2,225.9z"/>
<path class="st17" d="M97.7,211.2c0,0-8.2-2-4.7,9.2s15.2,19.4,19.4,18.9s21.4-18.7,21.4-20.9c0-1.8-1.4-3.3-3.2-3.3
	c-0.3,0-0.6,0-0.8,0.1c-2,0.5-15.2,14.7-16.4,14.2S104.5,216,97.7,211.2z"/>
<path class="st29" d="M131.5,219.3c-1.3-0.4-2-1.8-1.6-3.1c0,0,0-0.1,0-0.1c0.7-2.5,5.2-4.4,5.9-4.5s7.4,1.2,7.7,2.1
	c0.3,0.9-1.2,1.2-2.9,0.8c-1.4-0.3-2.7-0.4-4.1-0.5c0,0,1.8,1.9,1.6,2.7c-0.4,1.4-1.3,2.5-2.5,3.2c-1.4,0.7-3-0.8-3-0.8L131.5,219.3
	z"/>
<path class="st29" d="M161.7,221.8c0,0,5.4-4.6,5.7-3.8c0.3,0.8-1.9,3.1-1.9,3.1s7.3-2.8,7.4-1.8s-3.8,3.9-4.9,4.6
	c-1.5,0.7-3.1,1.3-4.7,1.7C163.3,225.6,161.3,222.9,161.7,221.8z"/>
<g class="st6">
	<path class="st4" d="M136.9,172.5c-1.9,1.2-3.1,3.3-3.2,5.6l0.2,76.4c0,4.9,3.5,6.9,7.7,4.4l45.5-26.3c1.9-1.2,3.1-3.3,3.2-5.6
		l-0.2-76.4c0-4.9-3.5-6.9-7.7-4.4L136.9,172.5z"/>
</g>
<path class="st5" d="M141.5,203.8c-0.6,0.4-0.9,1-1,1.7v4.1c0,0.6,0.4,0.9,1,0.6l37.1-21.4c0.6-0.4,0.9-1,1-1.7V183
	c0-0.6-0.4-0.9-1-0.5L141.5,203.8z"/>
<path class="st5" d="M141.5,212.6c-0.6,0.4-0.9,1-1,1.7v4.1c0,0.6,0.4,0.9,1,0.5l37.1-21.4c0.6-0.4,0.9-1,1-1.7v-4.1
	c0-0.6-0.4-0.9-1-0.6L141.5,212.6z"/>
<path class="st8" d="M156,219.2c-1.4,0.9-2.2,2.4-2.3,4v0.9c0,1.5,1,2,2.3,1.3l12-6.9c1.4-0.9,2.2-2.4,2.3-4v-0.9c0-1.5-1-2-2.3-1.3
	L156,219.2z"/>
<path class="st2" d="M102.8,184c11-3,17.3-18.2,17.3-18.2l-3-3.2c0,0-17.5-5.2-21.9,7.3C90.6,182.4,102.8,184,102.8,184z"/>
<path class="st2" d="M238.1,199.7c0,0,5.6,4.6,12.9,0c0,0-3.2,6.6-13.4,3.9l-6.3-2.7L238.1,199.7z"/>
<path class="st30" d="M90.5,176.9c-3.3,9.8-2.9,20.4,1.3,29.9c4.3,9.3,12.7,16.7,22.7,19c5.8,1.5,12,0.9,17.5-1.6
	c5.5-2.5,9.6-7.2,11.4-13c1.7-5.9,0.2-12.1-3.8-16.7c-3.1-3.2-8.5-5-11.2-8.5c-4.6-6.2-1.6-15.6-6.2-21.8
	c-4.2-5.7-12.8-6.7-19.1-3.5C96.8,163.9,92.7,170.2,90.5,176.9z"/>
<g class="st3">
	<path class="st4" d="M216.8,288.8c-3.2,1.8-3.2,4.8,0,6.7l105.8,61.4c3.6,1.8,7.9,1.8,11.5,0l24.8-11.6c3.2-1.8,3.2-4.8,0-6.7
		l-105.8-61.5c-3.6-1.8-7.9-1.8-11.5,0L216.8,288.8z"/>
</g>
<path class="st31" d="M187.6,31.8v2.6c0,1.1,0.9,2,2,2c0.3,0,0.7-0.1,1-0.3l12.5-7.2c0.6-0.4,1-1.1,1-1.8v-2.6c0-1.1-0.9-2-2-2
	c-0.3,0-0.7,0.1-1,0.3L188.6,30C188,30.4,187.6,31,187.6,31.8z"/>
<path class="st5" d="M148.2,67.7v2.6c0,1.1,0.9,2,2,2c0.3,0,0.7-0.1,1-0.3l51.9-30c0.6-0.4,1-1.1,1-1.8v-2.6c0-1.1-0.9-2-2-2
	c-0.3,0-0.7,0.1-1,0.3l-51.9,30C148.6,66.3,148.2,66.9,148.2,67.7z"/>
<g class="st6">
	<path class="st4" d="M169.7,81.6v2.6c0,1.1,0.9,2,2,2c0.3,0,0.7-0.1,1-0.3l30.5-17.6c0.6-0.4,1-1.1,1-1.8v-2.6c0-1.1-0.9-2-2-2
		c-0.3,0-0.7,0.1-1,0.3l-30.5,17.7C170.1,80.2,169.7,80.9,169.7,81.6z"/>
</g>
<g class="st7">
	<path class="st13" d="M156.3,76.2v2.6c0,1.1,0.9,2,2,2c0.3,0,0.7-0.1,1-0.3l43.9-25.3c0.6-0.4,1-1.1,1-1.8v-2.6c0-1.1-0.9-2-2-2
		c-0.3,0-0.7,0.1-1,0.3l-43.9,25.3C156.7,74.8,156.3,75.4,156.3,76.2z"/>
</g>
<path class="st5" d="M427.8,71.8c0.6,0.4,1,1.1,1,1.8l-0.1,18c0,0.7-0.5,0.9-1,0.6l-22.8-13.1c-0.6-0.4-1-1.1-1-1.8l0.1-18
	c0-0.7,0.5-0.9,1-0.6L427.8,71.8z"/>
<g class="st9">
	<path class="st4" d="M436.1,103.8c0.6,0.4,1,1.1,1,1.8l-0.1,18c0,0.7-0.5,0.9-1,0.6L413.3,111c-0.6-0.4-1-1.1-1-1.8l0.1-18
		c0-0.7,0.5-0.9,1-0.6L436.1,103.8z"/>
</g>
<g class="st9">
	<path class="st32" d="M448.5,136.7c0.6,0.4,1,1.1,1,1.8l-0.1,18c0,0.7-0.5,0.9-1,0.6l-22.7-13.2c-0.6-0.4-1-1.1-1-1.8l0.1-18
		c0-0.7,0.5-0.9,1-0.6L448.5,136.7z"/>
</g>
<g class="st10">
	<path class="st11" d="M204.5,120.8c0.4,0.2,0.7,0.7,0.7,1.2v11.6c0,0.4-0.3,0.6-0.7,0.4l-14.7-8.5c-0.4-0.2-0.7-0.7-0.7-1.2v-11.6
		c0-0.4,0.3-0.6,0.7-0.4L204.5,120.8z"/>
</g>
<path class="st4" d="M209.9,141.5c0.4,0.2,0.7,0.7,0.7,1.2v11.6c0,0.4-0.3,0.6-0.7,0.4l-14.7-8.5c-0.4-0.2-0.7-0.7-0.7-1.2v-11.6
	c0-0.4,0.3-0.6,0.7-0.4L209.9,141.5z"/>
<path class="st12" d="M385.1,168.5L385.1,168.5c-0.8,0-1.5-0.6-1.5-1.4c0,0,0,0,0-0.1v-46.4c0-0.8,0.6-1.5,1.4-1.5c0,0,0,0,0.1,0
	l0,0c0.8,0,1.5,0.6,1.5,1.4c0,0,0,0,0,0.1V167C386.5,167.8,385.9,168.5,385.1,168.5z"/>
<path class="st12" d="M385.1,222.6L385.1,222.6c-0.8,0-1.5-0.6-1.5-1.4c0,0,0,0,0-0.1v-46.5c0-0.8,0.6-1.5,1.4-1.5c0,0,0,0,0.1,0
	l0,0c0.8,0,1.5,0.6,1.5,1.4c0,0,0,0,0,0.1V221C386.6,221.9,385.9,222.6,385.1,222.6z"/>
<path class="st12" d="M385.3,274L385.3,274c-0.8,0-1.5-0.6-1.5-1.4c0,0,0,0,0-0.1v-24.1c0-0.8,0.6-1.5,1.4-1.5c0,0,0,0,0.1,0l0,0
	c0.8,0,1.5,0.6,1.5,1.4c0,0,0,0,0,0.1v24.1C386.8,273.3,386.1,274,385.3,274z"/>
<path class="st4" d="M301.9,87.2c6.7,3.9,12.1,13.2,12.2,21v0.2c-0.3,0.1-5.6,2.2-12.4-1.5c-0.1,0-0.1,0-0.2-0.1
	c-5.3-3.1-9.7-9.2-11.2-11.5c-0.2-0.3-0.4-0.6-0.6-1C289.6,86.5,295.1,83.3,301.9,87.2z"/>
<path class="st33" d="M338,187.4c1.2,0.8,2,2.1,2.1,3.6v8.9c0,1.4-1,1.9-2.1,1.2l-81-46.8c-1.2-0.8-2-2.1-2.1-3.6v-8.9
	c0-1.4,1-1.9,2.1-1.2L338,187.4z"/>
<path class="st34" d="M321.6,183.8c0.4,0.3,0.7,0.7,0.7,1.2v2.9c0,0.4-0.3,0.6-0.7,0.4l-59.1-34c-0.4-0.3-0.7-0.7-0.7-1.2v-2.9
	c0-0.4,0.3-0.6,0.7-0.4L321.6,183.8z"/>
<path class="st13" d="M315.6,120c0.6,2.1,1.1,4.2,1.3,6.3c0.1,1.2,0.2,2.5,0.2,3.7v1.3c0,0.3,0,0.7-0.1,1v0.2c0,0.3-0.1,0.6-0.1,0.9
	s-0.1,0.7-0.2,1c-0.1,0.3-0.1,0.7-0.2,1v0.1c-0.1,0.3-0.2,0.5-0.2,0.8v0.1c-0.1,0.3-0.2,0.5-0.3,0.8c-0.1,0.3-0.2,0.5-0.3,0.8
	c-0.2,0.3-0.3,0.5-0.4,0.8c0,0.1,0,0.1-0.1,0.1l0,0c-0.1,0.2-0.3,0.4-0.4,0.6c0,0.1,0,0.1-0.1,0.1l0,0c-0.1,0.2-0.3,0.4-0.4,0.6
	s-0.3,0.4-0.5,0.6c0,0.1,0,0.1-0.1,0.1l0,0l-0.5,0.5l-0.1,0.1l-0.5,0.5c-0.1,0-0.1,0-0.1,0.1l0,0c-0.2,0.1-0.4,0.2-0.5,0.4
	c-0.2,0.2-0.4,0.3-0.6,0.4c-0.1,0-0.1,0-0.1,0.1l0,0l-0.6,0.3c-0.1,0-0.1,0-0.1,0.1v0l-0.6,0.3c-0.1,0.1-0.3,0.1-0.4,0.1
	c-0.1-7.7-5.5-17.1-12.2-20.9s-12.3-0.8-12.3,7l0.6,0.9c-0.2-0.2-0.4-0.5-0.5-0.7c-0.3-0.3-0.5-0.7-0.7-1.1c0-0.1-0.1-0.1-0.1-0.2
	c-0.2-0.3-0.4-0.7-0.6-1c0-0.1-0.1-0.1-0.1-0.2c-0.2-0.3-0.4-0.7-0.6-1s-0.4-0.7-0.6-1.1c0-0.1-0.1-0.1-0.1-0.2
	c-0.2-0.4-0.4-0.7-0.6-1.1c0-0.1-0.1-0.1-0.1-0.2c-0.2-0.3-0.3-0.7-0.5-1c-0.2-0.4-0.4-0.8-0.5-1.2c0-0.1-0.1-0.1-0.1-0.2
	c-0.2-0.4-0.3-0.7-0.5-1.1s-0.3-0.8-0.5-1.2c0-0.1,0-0.1-0.1-0.2c-0.1-0.4-0.3-0.7-0.4-1.1c0-0.1,0-0.1-0.1-0.2
	c-0.2-0.8-0.5-1.5-0.7-2.3c0-0.1,0-0.1-0.1-0.2c-0.1-0.4-0.2-0.7-0.3-1.1V114c-0.1-0.3-0.2-0.7-0.2-1c-0.1-0.4-0.2-0.8-0.2-1.2v-0.2
	c-0.1-0.4-0.1-0.7-0.2-1.1c-0.1-0.4-0.1-0.7-0.1-1.1v-0.2c0-0.4,0-0.7-0.1-1.1v-1.3c0-1.2,0.1-2.3,0.2-3.4c0.2-1.6,0.7-3.2,1.4-4.7
	c0.1-0.3,0.3-0.5,0.4-0.8c3.3-5.9,10.2-7.2,18.2-2.6c7.2,4.1,13.4,12.1,17,20.6c0.2,0.6,0.5,1.1,0.7,1.7
	C315.1,118.4,315.3,119.2,315.6,120z M297.5,120.6c4.1,2.4,7.5,0.5,7.5-4.3c-0.3-5.2-3-10-7.4-12.9c-4.1-2.4-7.5-0.5-7.5,4.3
	S293.3,118.2,297.5,120.6"/>
<path class="st33" d="M339.3,207.4c1.3,0.8,2.1,2.1,2.2,3.6v8.8c0,1.4-1,1.9-2.2,1.2l-84.5-46.4c-1.3-0.8-2.1-2.1-2.2-3.6v-8.8
	c0-1.4,1-1.9,2.2-1.2L339.3,207.4z"/>
<path class="st35" d="M314.6,228.1c3.7,2.1,6.6,7.3,6.6,11.5v2.7c0,4.2-3,5.9-6.7,3.8L279.7,226c-3.7-2.1-6.7-7.3-6.6-11.5v-2.7
	c0-4.2,3-5.9,6.7-3.8L314.6,228.1z"/>
<path class="st13" d="M303.7,273.7c1.8,1.2,3,3.1,3.1,5.3v1.2c0,1.9-1.4,2.7-3.2,1.8l-16.5-9.3c-1.9-1.1-3-3.1-3.1-5.3v-1.2
	c0-1.9,1.4-2.7,3.2-1.8L303.7,273.7z"/>
<ellipse class="st36" cx="239.8" cy="362.9" rx="39.6" ry="23.5"/>
<path class="st16" d="M280,203c1.1-0.7,2.1-1.5,3-2.4c0.6-0.8,1.4-5.3,0.6-5.5c-0.8-0.2-1.4,3-1.4,3s-0.2-8.3-1.2-9.5
	c-1-1.2-4.1,4.7-4.3,5.7s-1,5.1-1,5.1S276.8,203,280,203z"/>
<path class="st17" d="M219.8,226.8c0,0-6.2,6.2-1.8,13.7s33.9-11,37-13.8c3.1-2.8,23.8-21.3,25-23.6c1.2-2.3-1.4-4.7-4.5-4.3
	s-15.8,13.8-25.6,20.1C249.8,218.8,226.3,224.1,219.8,226.8z"/>
<path class="st2" d="M223.4,357.8c0,0-0.5,3.7,0.2,5.3c1.2,1.7,3.5,2.2,5.3,1c0,0,0,0,0,0c1.8-1.5,3.5-3,5.1-4.7
	c0,0,5.4-2.9,5.9-4.4s-1.4-2.9-2.9-2.5s-5.9,3.1-8,3.1C226.9,355.4,224.1,355.9,223.4,357.8z"/>
<path class="st18" d="M217.8,278.4c0,0,4.7,78.3,5.3,80.6s6.7,3.6,7.9,0c0.7-2.3,2.5-74.8,2.5-74.8L217.8,278.4z"/>
<path class="st2" d="M239.1,362.5c-0.3,0.2-0.4,0.6-0.4,0.9c0,1.1,0,3.5,0.6,4.4c1.4,1.8,3.9,2.3,5.9,1.1c3.6-2.3,7-4.7,10.3-7.4
	c0.7-0.6,1.2-1.3,1.4-2.2c0.2-0.6-0.1-1.2-0.7-1.4c-1.3-0.6-2.7-0.8-4.1-0.5c-2.2,0.8-5.1,3.2-8.1,3
	C242.2,360.5,240.4,361.2,239.1,362.5z"/>
<path d="M249.6,279.3c-0.3-3.3-4.2-4.3-7.8-3.2c-6.8-0.4-17.4-0.1-17.8,5.2c-0.6,7.9,3.1,13.5,6.7,17.3c2.6,2.8,4.4,8.2,5.1,10.8
	c0.6,20.8,2,50.1,2.9,52.9c1.4,4.5,8.2,4.3,8.5-0.1C248.5,347.3,249.6,279.3,249.6,279.3z"/>
<path class="st19" d="M249.6,281.7c-0.8,4-12.3,6-19,5s-13.9-4.4-13.7-12.1c0,0,1.3-18.6,0.8-21.9s-1.8-9.2-1.8-15.3
	c0.1-3.8,1.4-7.6,3.8-10.6c0,0,3.8-4.3,15.5-1.9c0,0,9.6,2.1,14,9.2c0,0,3.1,7.8,2,24.1C250.3,274.5,249.6,281.7,249.6,281.7z"/>
<path class="st16" d="M226.1,216.3c0,0,1,5.9,0,8.6c-0.2,1.4,5.8,5.9,11,4.7c3.1-0.7,2.9-2.2,2.9-2.2s-2.5-4.2-2.2-8.3
	S229.7,215.4,226.1,216.3z"/>
<path class="st16" d="M245.9,204.3c0,7.7-6.3,14-14,14s-14-6.3-14-14c0-7.7,6.3-14,14-14l0,0C239.6,190.3,245.9,196.5,245.9,204.3z"
	/>
<path class="st16" d="M245.9,205.3c0,0,0.2,14-2.9,16.8s-7.7-2.6-15.2-4.4s6.1-16.5,6.1-16.5L245.9,205.3z"/>
<path class="st16" d="M277,226c0,0-1.3-5.5-0.9-5.9s2.2,1.9,2.2,1.9s0.9-5.6,1.6-6.2c0.7-0.6,3.7,2.4,4.1,4s-1.8,8.1-2.7,8.3
	S277.4,228.6,277,226z"/>
<path class="st20" d="M245.1,231.6c0,0-6.2,3-3.5,10.6s22.5,10.6,24.8,8.3s12.7-14.5,15.7-23.6c0,0-1.2-3.5-5.9-2.1
	c0,0-11.2,14.2-13,15.7S248.1,231,245.1,231.6z"/>
<path class="st21" d="M220,193.7c3.1-3.4,7.3-5.4,11.9-5.8c7.5-0.5,7.1,2.1,14,1.7c2.9-0.2,3.9,2.3,3.6,6c-0.2,2.7-3.5,6.4-8.4,6.4
	h-4.7c0,0,3.9,1.7,4.4,5.1c0.5,3.4-0.2,3.3-0.2,3.3c-1-0.8-2.3-0.9-3.4-0.4c-1.8,0.8-1.9,6.1-0.2,7l1.7,1c0,0-3.3,6-5,6.3
	s-7.6-4.1-7.6-4.1s-8.1-5.2-9.1-12.8C216.5,202.6,217.5,197.8,220,193.7z"/>
<ellipse class="st36" cx="117.5" cy="328.8" rx="39.6" ry="23.5"/>
<path class="st23" d="M97.5,264.7c0,0,2.8,16.8,5,26.2c0,0,0.4,15.5,0.9,20.8s1.8,16.8,1.8,16.8c1,0.7,2.3,0.9,3.4,0.4
	c0,0,2.2-33,2.8-38.3s2-29.3,2-29.3S108.2,256.7,97.5,264.7z"/>
<path class="st23" d="M114.5,258c0,0,2.8,16.8,5,26.2c0,0,0.4,15.5,0.9,20.8s1.8,16.8,1.8,16.8c1,0.7,2.3,0.9,3.4,0.4
	c0,0,2.2-33,2.8-38.3c0.5-5.3,0.7-29,0.7-29S125.1,250,114.5,258z"/>
<path d="M100.9,242.2c0,0-6.6,6.9-2.8,30.1c0.2,3.3,2.5,11.9,2.5,11.9c6.4,0.6,12.8-0.2,18.9-2.4c10.3-3.8,10.5-5.8,10.5-5.8
	s0.4-29.2-1.9-36.7C125.7,231.8,100.9,242.2,100.9,242.2z"/>
<path class="st37" d="M125.6,320.7c0,1.2,0.6,2.4,1.6,3c1.8,1.3,5.2,3.8,5.8,5.2c0,1.1-4.3-0.1-6.2-1.1c-1.4-0.9-2.7-2-3.8-3.3
	l0.1,1c-0.5,0-0.9-0.2-1.2-0.6c-0.6-0.6,0.1-4,0.1-4L125.6,320.7z"/>
<path class="st37" d="M108.7,328.4c0,1.2,0.6,2.4,1.6,3c1.8,1.3,5.2,3.8,5.8,5.2c0,1.1-4.3-0.1-6.2-1.1c-1.4-0.9-2.7-2-3.8-3.3
	l0.1,1c-0.5,0-0.9-0.2-1.2-0.6c-0.6-0.6,0.1-4,0.1-4L108.7,328.4z"/>
<path class="st25" d="M124.4,197.9c0,0,6,0.7,9.8,13.3c2.2,8.3,5.5,9,9.2,9.8s19.4,0,20.7,0s2.7,2.7,1,4.7s-23.4,4-27.7,4
	s-14-8-17.9-14.5S119.2,197.4,124.4,197.9z"/>
<path class="st26" d="M107,195.3c0,0-12.3,8.8-13.5,11.7s-2.9,12,1.1,16.5c6.9,7.7,2.8,21,3.7,25s10.3,4.4,16.8,3.1
	s12.6-4.6,12.3-12.2s1.8-18.1,2.2-21.5c0.4-6-0.2-12-1.6-17.8c-0.3-1.2-4.4-2.5-4.4-2.5S119.2,194.7,107,195.3z"/>
<path class="st27" d="M117.7,193.6v0.4c0.1,0.9,0.6,3.2,0.7,4.2s-1,2.5-3.5,2.5s-6.7-1.1-8.1-4.1c0-2.9-0.1-5.9-0.4-8.8L117.7,193.6
	z"/>
<path class="st23" d="M124.6,177c-1.3-7.1-7-11.2-13.4-9.7c0,0-6.9,0.7-10,6.8s1.4,11.2,4.3,14.5c1.2,1.3,2.1,2.4,2.7,3
	c0.2,0.2,0.4,0.5,0.6,0.7l0.1,0.1l0,0c1.7,1.6,3.7,2.9,5.9,3.6c2.8,0.8,6.1,0.4,7.9-1.5S126,184.1,124.6,177z"/>
<path class="st28" d="M97.5,225.4l15.1,4.8l14-3.9c-0.2,0.6-3.9,12.1-12,14.2c-5.7,1.5-12.6-3.6-16-6.7c-0.2-2.1-0.7-4.2-1.5-6.2
	L97.5,225.4z"/>
<path class="st17" d="M98,210.7c0,0-8.2-2-4.7,9.2s15.2,19.4,19.4,18.9s21.4-18.7,21.4-20.9c0-1.8-1.4-3.3-3.2-3.3
	c-0.3,0-0.6,0-0.8,0.1c-2,0.5-15.2,14.7-16.4,14.2S104.8,215.5,98,210.7z"/>
<path class="st29" d="M131.8,218.8c-1.3-0.4-2-1.8-1.6-3.1c0,0,0-0.1,0-0.1c0.7-2.5,5.2-4.4,5.9-4.5s7.4,1.2,7.7,2.1
	c0.3,0.9-1.2,1.2-2.9,0.8c-1.4-0.3-2.7-0.4-4.1-0.5c0,0,1.8,1.9,1.6,2.7c-0.4,1.4-1.3,2.5-2.5,3.2c-1.4,0.7-3-0.8-3-0.8L131.8,218.8
	z"/>
<path class="st29" d="M162,221.3c0,0,5.4-4.6,5.7-3.8c0.3,0.8-1.9,3.1-1.9,3.1s7.3-2.8,7.4-1.8s-3.8,3.9-4.9,4.6
	c-1.5,0.7-3.1,1.3-4.7,1.7C163.6,225.1,161.6,222.4,162,221.3z"/>
<g class="st6">
	<path class="st4" d="M137.2,172c-1.9,1.2-3.1,3.3-3.2,5.6l0.2,76.4c0,4.9,3.5,6.9,7.7,4.4l45.5-26.3c1.9-1.2,3.1-3.3,3.2-5.6
		l-0.2-76.4c0-4.9-3.5-6.9-7.7-4.4L137.2,172z"/>
</g>
<path class="st5" d="M141.8,203.3c-0.6,0.4-0.9,1-1,1.7v4.1c0,0.6,0.4,0.9,1,0.6l37.1-21.4c0.6-0.4,0.9-1,1-1.7v-4.1
	c0-0.6-0.4-0.9-1-0.5L141.8,203.3z"/>
<path class="st5" d="M141.8,212.1c-0.6,0.4-0.9,1-1,1.7v4.1c0,0.6,0.4,0.9,1,0.5l37.1-21.4c0.6-0.4,0.9-1,1-1.7v-4.1
	c0-0.6-0.4-0.9-1-0.6L141.8,212.1z"/>
<path class="st8" d="M156.3,218.7c-1.4,0.9-2.2,2.4-2.3,4v0.9c0,1.5,1,2,2.3,1.3l12-6.9c1.4-0.9,2.2-2.4,2.3-4v-0.9
	c0-1.5-1-2-2.3-1.3L156.3,218.7z"/>
<path class="st38" d="M103.1,183.5c11-3,17.3-18.2,17.3-18.2l-3-3.2c0,0-17.5-5.2-21.9,7.3C90.9,181.9,103.1,183.5,103.1,183.5z"/>
<path class="st39" d="M238.4,199.2c0,0,5.6,4.6,12.9,0c0,0-3.2,6.6-13.4,3.9l-6.3-2.7L238.4,199.2z"/>
<path class="st34" d="M258.5,167.1c-0.7-0.1-1.4,0.6-1.6,1.6s0.1,1.9,0.8,2.1c0.7,0.2,1.4-0.6,1.6-1.6S259.2,167.2,258.5,167.1z"/>
<path class="st34" d="M265.5,170.9c-0.6-0.1-1.4,0.6-1.6,1.6s0.1,1.9,0.8,2.1c0.7,0.2,1.4-0.6,1.6-1.6
	C266.5,172,266.2,171,265.5,170.9z"/>
<path class="st34" d="M272.6,174.6c-0.6-0.1-1.4,0.6-1.6,1.6s0.1,1.9,0.8,2.1c0.6,0.2,1.4-0.6,1.6-1.6S273.2,174.7,272.6,174.6z"/>
<path class="st34" d="M279.7,178.2c-0.6-0.1-1.4,0.6-1.6,1.6c-0.2,1,0.1,1.9,0.8,2.1s1.4-0.6,1.6-1.6
	C280.6,179.3,280.3,178.4,279.7,178.2z"/>
<path class="st34" d="M286.7,181.9c-0.6-0.1-1.4,0.6-1.6,1.6s0.1,1.9,0.8,2.1c0.6,0.2,1.4-0.6,1.6-1.6S287.4,182,286.7,181.9z"/>
<path class="st34" d="M293.7,185.6c-0.7-0.1-1.4,0.6-1.6,1.6s0.1,1.9,0.8,2.1c0.6,0.2,1.4-0.6,1.6-1.6S294.4,185.7,293.7,185.6z"/>
<path class="st40" d="M224.6,248.8c0.1,0,0.1-0.1,0.2-0.1c0.1-0.1,0.1-0.1,0.2-0.2c0.1-0.1,0.1-0.2,0.1-0.3c0-0.1,0.1-0.2,0.1-0.3
	c0-0.2,0-0.3-0.1-0.3s-0.2,0-0.3,0.1c-0.2,0.1-0.4,0.3-0.5,0.5c-0.1,0.2-0.3,0.5-0.3,0.8c0.1,0,0.2,0,0.3,0
	C224.4,248.9,224.5,248.8,224.6,248.8z"/>
<path class="st40" d="M240.7,255.6c-0.1,0-0.2,0.1-0.2,0.3c0,0.2,0.1,0.3,0.3,0.4c0.1,0,0.2-0.1,0.2-0.3S240.9,255.6,240.7,255.6z"
	/>
<polygon class="st40" points="235.5,254.5 235.8,254.6 235.6,254.1 "/>
<path class="st40" d="M232,249.7c-0.1-0.1-0.1-0.1-0.2-0.2c-0.1,0-0.2-0.1-0.2-0.1c-0.1,0-0.1,0-0.2,0c-0.1,0-0.1,0-0.2,0.1
	l-0.1,0.1c0,0.1-0.1,0.1-0.1,0.2l0.5,0.1l0.8,0.2l-0.1-0.2L232,249.7z"/>
<path class="st41" d="M225.7,252.9c0,0-0.1,0-0.1,0c-0.3,0.1-0.6,0.1-0.9,0c-0.3-0.1-0.6-0.3-0.8-0.6c-0.2-0.3-0.4-0.7-0.6-1
	c-0.2-0.4-0.3-0.9-0.4-1.3c-0.1-0.5-0.2-0.9-0.3-1.4s-0.2-0.9-0.2-1.3c0.2,0,0.4,0,0.6-0.1c0.2-0.1,0.4-0.2,0.6-0.3
	c0.2-0.1,0.3-0.3,0.5-0.5c0.2-0.2,0.3-0.4,0.4-0.6c0.1-0.2,0.2-0.4,0.3-0.6c0.1-0.2,0.1-0.4,0.1-0.6c0-0.3,0-0.7-0.2-1
	c-0.2-0.3-0.4-0.5-0.6-0.7c-0.3-0.2-0.6-0.3-0.9-0.4c-0.3-0.1-0.7-0.1-1,0c-0.4,0.1-0.7,0.2-1,0.4c-0.3,0.2-0.6,0.5-0.8,0.8
	c-0.1,0.1-0.2,0.3-0.3,0.5c-0.1,0.2-0.1,0.4-0.1,0.6c0,0.2,0,0.4,0.1,0.6c0,0.2,0.1,0.3,0.3,0.4c0.1,0,0.1,0.1,0.2,0s0-0.1,0.1-0.2
	c0.1-0.4,0.2-0.7,0.4-1.1c0.2-0.3,0.4-0.6,0.7-0.8c0.3-0.2,0.6-0.3,0.9-0.4c0.3-0.1,0.6-0.1,0.9-0.1c0.1,0,0.2,0,0.3,0
	c0.1,0,0.2,0.1,0.3,0.2c0.1,0.1,0.1,0.2,0.2,0.3c0,0.2,0,0.4,0,0.6c0,0.3-0.1,0.5-0.2,0.8c-0.1,0.2-0.2,0.5-0.4,0.7
	c-0.1,0.2-0.3,0.3-0.5,0.5c-0.2,0.1-0.4,0.2-0.6,0.2h-0.1c0.1-0.3,0.2-0.6,0.3-0.9s0.2-0.6,0.3-0.9c0-0.1,0-0.2-0.1-0.2
	c0-0.1-0.1-0.2-0.2-0.3c-0.1-0.1-0.1-0.2-0.2-0.2c-0.1-0.1-0.1-0.1-0.1,0l-0.3,1c-0.1,0.4-0.3,0.9-0.4,1.4c-0.3-0.2-0.4-0.5-0.4-0.8
	c0-0.1,0-0.2,0-0.2s0,0,0,0c0,0.1,0,0.1-0.1,0.2c0,0.1,0,0.2,0,0.2c0,0.3,0,0.5,0.1,0.7c0.1,0.2,0.2,0.3,0.3,0.4
	c-0.1,0.5-0.2,1-0.4,1.5c-0.1,0.5-0.2,1-0.2,1.5c0,0.1,0,0.2,0.1,0.2c0.1,0.1,0.1,0.2,0.2,0.2c0.1,0.1,0.1,0.1,0.2,0.2
	c0.1,0,0.1,0,0.1,0c0-0.4,0.1-0.7,0.1-1c0.1-0.5,0.2-1,0.3-1.5c0,0.5,0.1,1,0.2,1.5c0.1,0.5,0.2,1,0.3,1.5c0.1,0.5,0.3,0.9,0.5,1.3
	c0.2,0.4,0.4,0.7,0.7,1c0.3,0.2,0.6,0.4,0.9,0.4c0.4,0,0.9-0.1,1.2-0.4c0,0,0.1-0.1,0.1-0.1c0,0,0-0.1,0-0.1c0-0.1,0-0.1,0-0.2
	S225.7,252.9,225.7,252.9z"/>
<path class="st41" d="M225.5,249l0.1-0.2L225.5,249c-0.2,0.2-0.3,0.4-0.5,0.6c-0.1,0.2-0.3,0.3-0.5,0.4c-0.1,0.1-0.3,0.1-0.5,0.1
	c-0.1,0-0.2-0.1-0.2-0.2c0-0.1-0.1-0.3-0.1-0.4c0.1,0,0.3,0,0.4,0c0.1,0,0.3-0.1,0.4-0.1c0.2-0.1,0.4-0.2,0.5-0.4
	c0.2-0.2,0.3-0.5,0.4-0.8c0-0.2,0-0.3,0-0.5c0-0.1-0.1-0.2-0.1-0.4c-0.1-0.1-0.1-0.2-0.2-0.2c-0.1-0.1-0.2-0.1-0.3-0.1
	c-0.1,0-0.1,0-0.2,0c-0.1,0-0.1,0-0.2,0c-0.2,0.1-0.3,0.2-0.4,0.3c-0.2,0.1-0.3,0.3-0.4,0.5c-0.1,0.2-0.2,0.4-0.3,0.6
	c-0.1,0.2-0.2,0.5-0.2,0.7c-0.1,0.4-0.1,0.8,0,1.1c0.1,0.3,0.3,0.5,0.6,0.5c0.2,0,0.5,0,0.7-0.1c0.2-0.1,0.4-0.2,0.6-0.4
	c0-0.1,0.1-0.2,0.1-0.4S225.5,249.2,225.5,249z M224.3,248.2c0.1-0.2,0.3-0.4,0.5-0.5c0.1-0.1,0.2-0.1,0.3-0.1s0.1,0.2,0.1,0.3
	c0,0.1,0,0.2-0.1,0.3c0,0.1-0.1,0.2-0.1,0.3c-0.1,0.1-0.1,0.1-0.2,0.2c-0.1,0.1-0.1,0.1-0.2,0.1c-0.1,0-0.2,0.1-0.3,0.1
	c-0.1,0-0.2,0-0.3,0C224.1,248.6,224.2,248.4,224.3,248.2z"/>
<path class="st41" d="M227.5,250c0-0.1,0.1-0.2,0.1-0.4l0.1-0.4c-0.1,0.1-0.1,0.2-0.1,0.3l-0.2,0.3l-0.1,0.3
	c-0.1,0.1-0.1,0.2-0.2,0.3c0,0.1-0.1,0.1-0.1,0.2c0,0,0,0,0-0.1s0-0.2,0.1-0.4c0-0.1,0.1-0.2,0.1-0.3c0-0.1,0.1-0.2,0.1-0.2l0,0
	c0,0,0-0.1,0-0.1c0,0,0,0,0-0.1l0.1-0.2c0-0.1,0-0.1,0.1-0.2c0,0,0-0.1,0-0.1c0,0,0-0.1,0-0.1l0,0c0-0.1,0-0.1,0.1-0.2
	c0-0.1,0-0.1,0-0.1c0-0.1,0-0.2,0-0.3c0-0.1,0-0.2-0.1-0.2c0-0.1-0.1-0.1-0.1-0.2c0-0.1-0.1-0.1-0.2-0.1c-0.2,0-0.4,0-0.5,0.1
	c0,0-0.1,0.1-0.1,0.1c0-0.1,0-0.2,0-0.4c0-0.1-0.1-0.2-0.1-0.2c0,0-0.1-0.1-0.2-0.1c-0.1,0-0.1,0-0.2,0c0,0-0.1,0.1-0.1,0.1
	c0,0.1,0,0.1,0,0.2c0,0.1-0.1,0.2-0.1,0.4s-0.1,0.3-0.1,0.5s-0.1,0.2-0.1,0.3l-0.1,0.2c-0.1,0.2-0.1,0.4-0.2,0.6s-0.1,0.3-0.1,0.4
	l0,0c0,0.1,0,0.3,0,0.4c0,0.1,0,0.2,0.1,0.3c0,0.1,0.1,0.1,0.2,0.2c0.1,0,0.1,0.1,0.2,0.1l0,0c0-0.1,0-0.2,0-0.3
	c0-0.1,0.1-0.3,0.1-0.5s0.1-0.3,0.1-0.5l0.2-0.5l0.2-0.4c0.1-0.2,0.2-0.3,0.4-0.5c0,0,0.1-0.1,0.1-0.1s0,0.1,0,0.2s0,0.1,0,0.2
	s-0.1,0.2-0.1,0.3s0,0,0,0l0,0l0,0c0,0.1-0.1,0.2-0.1,0.4s-0.1,0.2-0.1,0.4v0.1c0,0.1,0,0.1,0,0.2c0,0.1,0,0.2,0,0.3
	c0,0.1,0,0.2,0,0.3c0,0.1,0.1,0.2,0.1,0.3c0,0.1,0.1,0.2,0.2,0.3c0.1,0.1,0.2,0.1,0.2,0c0.1-0.1,0.2-0.1,0.2-0.2
	c0.1-0.1,0.2-0.2,0.2-0.4l0,0c0-0.1,0-0.2,0-0.3C227.4,250.2,227.5,250.1,227.5,250z"/>
<path class="st41" d="M230.1,249.6L230.1,249.6c0-0.1,0.1-0.3,0.1-0.4l0,0c-0.1,0.1-0.1,0.3-0.2,0.5s-0.2,0.5-0.3,0.7l-0.2,0.3
	l-0.2,0.2l-0.1,0.1c0,0,0,0,0,0c0,0,0-0.1,0-0.1c0,0,0-0.1,0.1-0.2c0,0,0-0.1,0-0.1c0-0.1,0.1-0.2,0.1-0.3c0-0.1,0.1-0.2,0.1-0.4
	l0.1-0.4l0.1-0.3c0-0.1,0-0.1,0.1-0.2v-0.1v-0.1c0-0.1,0-0.2,0-0.4c0-0.1-0.1-0.2-0.2-0.3l-0.1,0h-0.1c-0.1,0-0.1,0-0.2,0
	c0,0-0.1,0.1-0.1,0.1c0,0,0,0.1,0,0.1c0,0.1,0,0.2-0.1,0.3l-0.1,0.4c0,0.1-0.1,0.3-0.1,0.4s-0.1,0.3-0.2,0.4
	c-0.1,0.2-0.1,0.3-0.2,0.5c-0.1,0.1-0.1,0.2-0.2,0.3l-0.2,0.2c0,0-0.1,0.1-0.1,0.1c0,0-0.1,0,0,0c0,0,0-0.1,0-0.1
	c0-0.1,0-0.1,0.1-0.2l0.4-1.3c0.1-0.2,0.1-0.4,0.2-0.5c0-0.1,0.1-0.2,0.1-0.3c0-0.1,0-0.2,0-0.3c0-0.1,0-0.1-0.1-0.2
	c0-0.1-0.1-0.1-0.1-0.1c0,0-0.1,0-0.1-0.1c0,0-0.1,0-0.1,0c0,0,0,0,0,0.1c0,0.2-0.1,0.3-0.1,0.4c-0.1,0.2-0.1,0.4-0.2,0.7
	s-0.1,0.3-0.1,0.4l0,0l-0.1,0.4c0,0.1-0.1,0.2-0.1,0.4c0,0.1,0,0.2-0.1,0.3c0,0.1,0,0.2,0,0.3v0.3c0,0.2,0.1,0.4,0.3,0.6
	c0.1,0.1,0.1,0.1,0.2,0.1c0.1,0,0.2-0.1,0.2-0.1c0.1-0.1,0.1-0.2,0.2-0.3l0.2-0.3c0,0.2,0,0.3,0.1,0.5c0,0.2,0.1,0.3,0.3,0.5
	c0.1,0.1,0.2,0.1,0.2,0c0.1-0.1,0.2-0.1,0.3-0.2c0.1-0.1,0.2-0.3,0.2-0.4l0.2-0.4c0.1-0.2,0.2-0.4,0.2-0.5s0-0.1,0-0.1
	C230.1,249.9,230.1,249.8,230.1,249.6z"/>
<path class="st41" d="M239.7,251.8c-0.1-0.1-0.2-0.2-0.3-0.3c-0.1-0.1-0.2-0.1-0.3-0.1c-0.1,0-0.2,0-0.3,0c-0.1,0-0.2,0.1-0.2,0.2
	c-0.1,0.1-0.1,0.2-0.1,0.3c0,0.1,0,0.2,0,0.4c0,0.1,0,0.3,0.1,0.4c0,0.1,0.1,0.2,0.2,0.3c0.1,0.1,0.1,0.2,0.2,0.2
	c0.1,0.1,0.2,0.1,0.3,0.1c0.1,0,0.2,0,0.3,0c0.1,0,0.2-0.1,0.2-0.1c0.1-0.1,0.1-0.2,0.1-0.3c0-0.1,0-0.2,0-0.4c0-0.1,0-0.3-0.1-0.4
	C239.8,252,239.7,251.9,239.7,251.8z"/>
<path class="st4" d="M238.9,248.4c0-0.2-0.4-0.4-0.8-0.3s-1.2,1-1.6,1.8s-0.7,1.7-0.8,1.6s-0.3-0.6-0.6-1.1s-0.6-0.8-1-0.8
	s-0.9,0.3-0.7,0.5c0.5,0.4,0.9,0.9,1.1,1.5c0.4,0.9,0.5,1.5,0.6,1.6s0.6,0.1,0.9,0s0.3-0.2,0.5-0.9c0.3-0.9,0.7-1.8,1.1-2.6
	C238.1,249.2,238.9,248.5,238.9,248.4z"/>
<path class="st4" d="M240.8,254.6C240.8,254.6,240.9,254.6,240.8,254.6C240.9,254.6,240.9,254.6,240.8,254.6
	c0.1-0.1,0.1-0.1,0.1-0.2l-0.2-3.4c0,0,0-0.1,0-0.1c0,0,0-0.1-0.1-0.1l-0.1-0.1h-0.1l-0.4-0.1h-0.1l0,0c0,0,0,0,0,0.1
	c0,0,0,0.1,0,0.1l-0.1,0.3c0-0.1-0.1-0.2-0.2-0.3c-0.1-0.1-0.1-0.2-0.2-0.2c-0.1-0.1-0.2-0.1-0.2-0.2l-0.3-0.1c-0.2,0-0.4,0-0.6,0
	c-0.2,0.1-0.4,0.2-0.5,0.3c-0.1,0.2-0.2,0.3-0.3,0.5c-0.1,0.2-0.1,0.5-0.1,0.8c0,0.2,0,0.4,0.1,0.5c0,0.2,0.1,0.3,0.2,0.5
	c0.1,0.2,0.2,0.3,0.3,0.5c0.1,0.1,0.2,0.3,0.3,0.4c0.2,0.2,0.5,0.4,0.8,0.5c0.1,0,0.2,0,0.2,0c0.1,0,0.1,0,0.2,0l0.2-0.1
	c0.1,0,0.1-0.1,0.1-0.1v0.1v0.1c0,0,0,0.1,0,0.1c0,0,0,0,0.1,0.1h0.1l0.5,0.1L240.8,254.6z M239.8,252.9c0,0.1-0.1,0.2-0.1,0.3
	c-0.1,0.1-0.1,0.1-0.2,0.1c-0.1,0-0.2,0-0.3,0c-0.1,0-0.2-0.1-0.3-0.1c-0.1-0.1-0.2-0.2-0.2-0.2c-0.1-0.1-0.1-0.2-0.2-0.3
	c0-0.1-0.1-0.3-0.1-0.4c0-0.1,0-0.2,0-0.4c0-0.1,0.1-0.2,0.1-0.3c0.1-0.1,0.1-0.1,0.2-0.2c0.1,0,0.2,0,0.3,0c0.1,0,0.2,0.1,0.3,0.1
	c0.1,0.1,0.2,0.2,0.3,0.3c0.1,0.1,0.1,0.2,0.2,0.4c0,0.1,0.1,0.2,0.1,0.4C239.9,252.6,239.9,252.8,239.8,252.9L239.8,252.9z"/>
<path class="st4" d="M232.8,249.7c-0.1-0.2-0.2-0.3-0.3-0.4c-0.1-0.1-0.2-0.3-0.3-0.4c-0.1-0.1-0.2-0.2-0.4-0.3
	c-0.1-0.1-0.3-0.1-0.4-0.2c-0.1,0-0.3,0-0.4,0c-0.1,0-0.2,0-0.4,0.1c-0.1,0.1-0.2,0.1-0.3,0.2l0,0l0.3,0.1l0.1,0.9l-0.6-0.2
	c0,0.2,0,0.3,0,0.5c0,0,0,0.1,0,0.1c0,0.1,0,0.1,0,0.2l0.6,0.1v0.9l-0.3-0.1l0.1,0.2c0.2,0.2,0.3,0.4,0.6,0.5
	c0.2,0.1,0.4,0.2,0.6,0.3c0.4,0.1,0.7,0,1-0.3l0.1-0.1c0,0,0-0.1,0-0.1c0,0,0,0,0-0.1v-0.1l-0.3-0.4l-0.1-0.1c0,0,0,0-0.1,0h-0.1
	l-0.1,0c0,0-0.1,0.1-0.1,0.1l-0.1,0h-0.2h-0.2c-0.1,0-0.1,0-0.2-0.1c-0.1,0-0.1-0.1-0.2-0.2c-0.1-0.1-0.1-0.2-0.2-0.2
	c-0.1-0.1-0.1-0.2-0.1-0.4l1.8,0.4c0.1,0,0.2,0,0.2,0c0,0,0.1,0,0.1,0c0,0,0-0.1,0-0.1c0-0.1,0-0.1,0-0.3c0-0.2,0-0.3-0.1-0.5
	C232.9,250,232.9,249.9,232.8,249.7z M231.5,249.9l0.1,0.9l-0.7-0.2v-0.9l0.2,0.1c0-0.1,0-0.1,0.1-0.2l0.1-0.1c0,0,0.1-0.1,0.2-0.1
	c0.1,0,0.1,0,0.2,0c0.1,0,0.2,0.1,0.2,0.1c0.1,0,0.1,0.1,0.2,0.2l0.1,0.2l0.1,0.2L231.5,249.9z"/>
<path class="st4" d="M231,253.8l-0.4-0.1v-0.5l0.3,0.1h0.1l0,0v-0.1l0,0h-0.1l-0.3-0.1v-0.5l0.4,0.1h0.1l0,0v-0.1l0,0H231l-0.4-0.1
	h-0.1h-0.1v0.1c0,0,0,0.1,0,0.1l0.1,1c0,0,0,0.1,0,0.1v0.1h0.1h0.1l0.4,0.1c0,0,0.1,0,0.1,0l0,0v-0.1l0,0L231,253.8z M231.1,253.9
	H231l-0.4-0.1h-0.1v-0.1l-0.1-1c0,0,0-0.1,0-0.1h0.1l0.4,0.1h0.1v0h-0.1l-0.4-0.1v0.5l0.4,0.1h0.1l0,0h-0.1l-0.4-0.1v0.5l0.4,0.1
	L231.1,253.9L231.1,253.9z"/>
<path class="st4" d="M230.5,253.8v-0.5l0.4,0.1h0.1l0,0h-0.1l-0.4-0.1v-0.5l0.4,0.1h0.1v0h-0.1l-0.4-0.1h-0.1c0,0,0,0.1,0,0.1
	L230.5,253.8l0,0.1h0.1l0.4,0.1h0.1l0,0H231L230.5,253.8z"/>
<path class="st4" d="M232.5,253.1L232.5,253.1l-0.1,0v0c0,0,0,0.1,0,0.1l0.1,1v0.2h0.1v0c0,0,0-0.1,0-0.1l-0.1-1V253.1z
	 M232.5,254.3L232.5,254.3c0,0,0-0.1,0-0.1l-0.1-1c0-0.1,0-0.1,0-0.1l0,0v0.1l0.1,1C232.5,254.2,232.5,254.3,232.5,254.3
	L232.5,254.3z"/>
<path class="st4" d="M232.4,253.1L232.4,253.1c0,0,0,0.1,0,0.1l0.1,1c0,0,0,0.1,0,0.1l0,0c0,0,0-0.1,0-0.1l-0.1-1L232.4,253.1z"/>
<path class="st4" d="M235.5,254.5l0.4,0.1l-0.2-0.7L235.5,254.5z M235.5,254.5l0.1-0.4l0.2,0.5L235.5,254.5z"/>
<path class="st4" d="M236.1,255l-0.3-1l0,0c0,0,0-0.1,0-0.1l0,0h-0.1l0,0c0,0,0,0,0,0.1l0,0l-0.2,0.9l0,0v0.1v0.1h0.1l0,0
	c0,0,0-0.1,0-0.1l0.1-0.3l0.4,0.1L236.1,255L236.1,255c0,0.1,0,0.1,0,0.2l0,0h0.1v-0.1C236.2,255.1,236.1,255.1,236.1,255z
	 M236.1,255.2c0,0,0-0.1,0-0.1l-0.1-0.4l-0.4-0.1l-0.1,0.3v0.1l0,0c0,0,0-0.1,0-0.1l0.2-0.9c0,0,0-0.1,0-0.1l0,0v0.1l0.4,1
	C236,255.1,236,255.1,236.1,255.2L236.1,255.2z"/>
<path class="st4" d="M235.7,254v-0.1l0,0C235.7,253.9,235.7,254,235.7,254l-0.2,0.9c0,0,0,0.1,0,0.1l0,0v-0.1l0.1-0.3l0.4,0.1
	l0.1,0.4c0,0,0,0.1,0,0.1l0,0c0,0,0-0.1-0.1-0.1L235.7,254z M235.5,254.5l0.2-0.6l0.2,0.7L235.5,254.5z"/>
<path class="st4" d="M237.4,254.3L237.4,254.3l-0.1,0v0c0,0,0,0.1,0,0.1l0.1,1v0.2h0.1v0c0,0,0-0.1,0-0.1l-0.1-1
	C237.4,254.4,237.4,254.3,237.4,254.3z M237.4,255.5L237.4,255.5c0,0,0-0.1,0-0.1l-0.1-1c0,0,0-0.1,0-0.1l0,0v0.1l0.1,1
	C237.4,255.5,237.4,255.5,237.4,255.5L237.4,255.5z"/>
<path class="st4" d="M237.4,254.3L237.4,254.3c0,0,0,0.1,0,0.1l0.1,1c0,0,0,0.1,0,0.1l0,0c0,0,0-0.1,0-0.1l-0.1-1V254.3z"/>
<path class="st4" d="M239.2,255.9L239.2,255.9c-0.1,0-0.1,0-0.2,0c0,0,0-0.1,0-0.1v-0.6h0.1h0.1l0,0V255l0,0h-0.1H239v-0.3h-0.1v0
	c0,0,0,0.1,0,0.1v0.1l0,0h-0.1l0,0v0.1l0,0h0.1l0,0v0.6c0,0.1,0,0.1,0.1,0.2c0,0.1,0.1,0.1,0.2,0.1c0,0,0.1,0,0.1,0l0,0L239.2,255.9
	L239.2,255.9z M239.1,256c-0.1,0-0.2-0.1-0.2-0.2v-0.6h-0.1h-0.1l0,0h0.1h0.1v-0.2c0,0,0-0.1,0-0.1l0,0v0.3h0.1h0.1v0h-0.1h-0.1v0.6
	C238.9,255.8,239,255.9,239.1,256L239.1,256L239.1,256L239.1,256z"/>
<path class="st4" d="M239.1,255.9c-0.1,0-0.2-0.1-0.2-0.2v-0.6h0.1h0.1v0h-0.1H239v-0.3l0,0c0,0,0,0.1,0,0.1v0.1h-0.1h-0.1l0,0h0.1
	h0.1v0.6C239,255.8,239,255.9,239.1,255.9l0.1,0l0,0L239.1,255.9z"/>
<path class="st4" d="M241,255.6c-0.1-0.1-0.2-0.2-0.3-0.2c-0.1,0-0.2,0-0.2,0.1c-0.1,0.1-0.1,0.2-0.1,0.3c0,0.1,0,0.3,0.1,0.4
	c0.1,0.1,0.2,0.2,0.3,0.2c0.1,0,0.2,0,0.2-0.1c0.1-0.1,0.1-0.2,0.1-0.3C241.1,255.9,241,255.8,241,255.6z M240.8,256.4
	c-0.1,0-0.2-0.1-0.2-0.2c-0.1-0.1-0.1-0.2-0.1-0.4c0-0.3,0.1-0.4,0.3-0.4c0.1,0,0.2,0.1,0.2,0.2c0.1,0.1,0.1,0.2,0.1,0.3
	C241.1,256.3,241,256.4,240.8,256.4z"/>
<path class="st4" d="M240.9,255.7c-0.1-0.1-0.1-0.2-0.2-0.2c-0.2,0-0.3,0.1-0.3,0.4c0,0.1,0,0.2,0.1,0.4c0.1,0.1,0.1,0.2,0.2,0.2
	c0.2,0,0.3-0.1,0.3-0.4C241,255.9,241,255.8,240.9,255.7z M240.8,256.4c-0.2-0.1-0.3-0.3-0.3-0.5c0-0.3,0.1-0.4,0.3-0.4
	c0.2,0.1,0.3,0.3,0.3,0.5C241.1,256.3,240.9,256.4,240.8,256.4L240.8,256.4z"/>
<path class="st4" d="M240.7,255.5c-0.2,0-0.3,0.1-0.2,0.3c0,0.2,0.1,0.4,0.3,0.5c0.2,0,0.3-0.1,0.2-0.3
	C241,255.8,240.9,255.6,240.7,255.5z M240.7,256.3c-0.2-0.1-0.3-0.2-0.3-0.4c0-0.2,0.1-0.3,0.2-0.3s0.2,0.2,0.3,0.4
	S240.9,256.3,240.7,256.3L240.7,256.3z"/>
<path class="st4" d="M240.7,255.5c-0.2,0-0.3,0.1-0.3,0.4c0,0.2,0.1,0.4,0.3,0.5c0.2,0,0.3-0.1,0.3-0.4
	C241,255.8,240.9,255.6,240.7,255.5z M240.7,256.3c-0.2-0.1-0.3-0.3-0.3-0.5c0-0.2,0.1-0.4,0.2-0.3c0.2,0.1,0.3,0.3,0.3,0.5
	C241,256.2,240.9,256.4,240.7,256.3L240.7,256.3z"/>
<polygon class="st42" points="230.7,249.8 230.8,250.6 231.5,250.8 231.5,249.9 231,249.8 "/>
<path class="st43" d="M230.1,249.6l0.6,0.2l-0.1-0.9l-0.3-0.1l0,0c-0.1,0.1-0.1,0.2-0.2,0.3C230.2,249.3,230.1,249.4,230.1,249.6
	L230.1,249.6z"/>
<path class="st41" d="M230.8,250.6l-0.6-0.1l0,0c0.1,0.3,0.2,0.7,0.4,0.9l0,0l0.3,0.1L230.8,250.6z"/>
<path class="st40" d="M123.4,212.7C123.4,212.7,123.4,212.7,123.4,212.7c0,0.1,0,0.1,0,0.1c0,0,0,0.1,0.1,0.1c0,0,0,0,0.1,0s0,0,0,0
	c0,0,0-0.1,0-0.1C123.5,212.8,123.5,212.8,123.4,212.7C123.5,212.7,123.5,212.7,123.4,212.7z"/>
<path class="st40" d="M118.7,214.4L118.7,214.4L118.7,214.4L118.7,214.4L118.7,214.4C118.7,214.4,118.7,214.4,118.7,214.4
	L118.7,214.4z"/>
<path class="st40" d="M123.1,211.8c0,0-0.1,0.1,0,0.1l0,0c0,0,0.1,0.1,0.1,0.1l0,0c0,0,0-0.1,0-0.1
	C123.2,211.8,123.2,211.8,123.1,211.8z M123.2,211.9L123.2,211.9C123.2,211.9,123.2,211.9,123.2,211.9L123.2,211.9 M123.1,211.8
	C123.1,211.8,123.2,211.8,123.1,211.8C123.2,211.8,123.2,211.9,123.1,211.8C123.2,211.9,123.2,211.9,123.1,211.8L123.1,211.8z"/>
<path class="st40" d="M118.6,214.2L118.6,214.2L118.6,214.2L118.6,214.2L118.6,214.2L118.6,214.2L118.6,214.2L118.6,214.2z"/>
<path class="st40" d="M117.3,211.7L117.3,211.7c0,0,0,0.1,0,0.1c0,0.1,0.1,0.1,0.1,0.1l0,0c0,0,0.1-0.1,0-0.1
	C117.4,211.8,117.4,211.7,117.3,211.7z M117.4,211.9c0,0-0.1,0-0.1-0.1c0,0,0-0.1,0-0.1C117.3,211.8,117.4,211.8,117.4,211.9
	C117.4,211.8,117.4,211.9,117.4,211.9L117.4,211.9z"/>
<path class="st40" d="M123.3,210.4L123.3,210.4h-0.2c0,0,0,0.1,0,0.1l0,0C123.1,210.5,123.1,210.5,123.3,210.4L123.3,210.4
	L123.3,210.4C123.3,210.5,123.3,210.5,123.3,210.4L123.3,210.4C123.3,210.4,123.3,210.4,123.3,210.4z"/>
<path class="st40" d="M122.9,210.2c0,0-0.1-0.1-0.1-0.1s0,0.1,0,0.1s0.1,0.1,0.1,0.1S123,210.3,122.9,210.2z M122.8,210.2
	C122.8,210.2,122.8,210.2,122.8,210.2C122.9,210.2,122.9,210.2,122.8,210.2C122.9,210.2,122.9,210.2,122.8,210.2
	C122.9,210.3,122.9,210.3,122.8,210.2L122.8,210.2z"/>
<path class="st40" d="M122.8,210.1c0,0,0.1,0,0.1,0c0,0,0.1,0.1,0.1,0.1c0,0,0,0.1,0,0.1c0,0,0,0.1,0.1,0.1h0.1h0.1c0,0,0,0,0-0.1
	c0,0-0.1-0.1-0.1-0.1c0,0,0-0.1,0-0.1c0,0,0.1-0.1,0.1-0.1l0,0c0,0-0.1,0-0.1,0.1c0,0.1,0,0.1,0,0.2c0,0,0,0.1,0.1,0.1l0,0l0,0l0,0
	l0,0c0,0,0-0.1-0.1-0.1c0-0.1-0.1-0.1-0.1-0.1C122.9,210.1,122.9,210.1,122.8,210.1L122.8,210.1z"/>
<path class="st40" d="M123.2,210.2c0,0,0.1,0.1,0.1,0.1s0.1-0.1,0-0.1c0,0-0.1-0.1-0.1-0.1C123.1,210.1,123.1,210.1,123.2,210.2
	C123.1,210.2,123.1,210.2,123.2,210.2z M123.3,210.2C123.3,210.2,123.3,210.2,123.3,210.2C123.2,210.3,123.2,210.3,123.3,210.2
	 M123.2,210.2C123.2,210.2,123.2,210.2,123.2,210.2L123.2,210.2z"/>
<polygon class="st40" points="120.7,213.7 120.8,213.7 120.7,213.6 "/>
<path class="st40" d="M120.8,211.6l-0.1-0.1l0,0h-0.1v-0.1v-0.1l-0.2,0.1v0.1v0.1h-0.1l0,0l0,0l0.1,0.1l0,0h-0.1l0.1,0.2l0,0l0,0
	l0.1,0.1l0,0h0.1v0.1v0.1h0.2v-0.1V212h0.1l0,0l-0.1-0.1l0,0h0.1L120.8,211.6L120.8,211.6L120.8,211.6z M120.7,211.9
	c-0.1,0-0.2,0-0.2-0.1c0-0.1,0-0.2,0-0.2c0.1,0,0.2,0,0.2,0.1C120.8,211.8,120.8,211.9,120.7,211.9L120.7,211.9z"/>
<path class="st40" d="M119.4,214L119.4,214L119.4,214L119.4,214L119.4,214L119.4,214L119.4,214L119.4,214z"/>
<path class="st40" d="M120.2,213.7C120.1,213.7,120.1,213.8,120.2,213.7c0,0.1,0,0.1,0,0.1c0,0,0,0,0,0.1c0,0,0,0,0.1,0s0,0,0,0
	C120.2,213.8,120.2,213.8,120.2,213.7C120.2,213.8,120.2,213.7,120.2,213.7C120.2,213.7,120.2,213.7,120.2,213.7z"/>
<path class="st40" d="M118.2,214.3L118.2,214.3C118.2,214.4,118.2,214.4,118.2,214.3l0.1,0.2c0,0,0,0,0.1,0l0,0c0,0,0-0.1,0-0.1
	C118.3,214.4,118.3,214.3,118.2,214.3L118.2,214.3z"/>
<path class="st40" d="M119.9,213L119.9,213c0,0,0-0.1,0-0.1c0,0-0.1-0.1-0.1-0.1c0,0,0,0,0,0.1l0,0C119.8,213,119.8,213,119.9,213z
	 M119.8,212.9L119.8,212.9C119.8,212.8,119.8,212.8,119.8,212.9L119.8,212.9L119.8,212.9C119.8,212.9,119.8,212.9,119.8,212.9
	L119.8,212.9z"/>
<path class="st40" d="M122.9,211.9c0,0-0.1,0.1,0,0.1c0,0.1,0.1,0.1,0.2,0.1c0,0,0-0.1,0-0.1C123,211.9,123,211.9,122.9,211.9z
	 M123,212.1c0,0-0.1,0-0.1-0.1c0,0,0-0.1,0-0.1c0,0,0.1,0,0.1,0.1C123,212,123,212.1,123,212.1L123,212.1z"/>
<path class="st40" d="M121.7,213.2L121.7,213.2C121.7,213.3,121.7,213.3,121.7,213.2c0,0.1,0,0.1,0.1,0.2c0,0,0,0,0.1,0l0,0
	c0,0,0-0.1,0-0.1C121.8,213.3,121.8,213.3,121.7,213.2C121.8,213.2,121.8,213.2,121.7,213.2z"/>
<path class="st40" d="M122.5,213L122.5,213C122.5,213,122.5,213,122.5,213c0,0.1,0,0.1,0.1,0.2c0,0,0,0,0.1,0l0,0c0,0,0-0.1,0-0.1
	c0,0,0,0,0-0.1C122.7,213,122.6,213,122.5,213z"/>
<path class="st40" d="M119.5,213c0,0-0.1,0.1,0,0.1c0,0.1,0.1,0.1,0.2,0.1c0,0,0.1-0.1,0-0.1C119.7,213,119.6,212.9,119.5,213z
	 M119.7,213.1c0,0-0.1,0-0.1-0.1c0,0,0-0.1,0-0.1c0,0,0.1,0,0.1,0.1C119.7,213,119.7,213.1,119.7,213.1z"/>
<path class="st40" d="M125.2,210.3l-0.1-0.1l0,0l0,0H125V210V210l-0.2,0.1v0.1v0.1h-0.1l0,0l0,0l0.1,0.1h-0.1h-0.1l0.2,0.3h0.1h0.1
	l0.1,0.1l0,0h0.1v0.1v0.1l0.2-0.1v-0.1v-0.1h0.1l0,0l0,0l-0.1-0.1h0.1h0.1l-0.2-0.3L125.2,210.3L125.2,210.3z M125.2,210.7
	c-0.1,0-0.3-0.1-0.3-0.2c-0.1-0.1,0-0.2,0.1-0.3c0.1,0,0.3,0.1,0.3,0.2C125.3,210.6,125.3,210.7,125.2,210.7z"/>
<polygon class="st40" points="126.3,212 126.3,212 126.2,211.9 "/>
<ellipse transform="matrix(0.7879 -0.6158 0.6158 0.7879 -103.1133 121.6552)" class="st40" cx="125" cy="210.5" rx="0.1" ry="0.2"/>
<path class="st40" d="M117.2,211.8C117.2,211.8,117.2,211.8,117.2,211.8C117.2,211.9,117.2,211.9,117.2,211.8
	C117.3,211.8,117.2,211.8,117.2,211.8C117.2,211.7,117.2,211.7,117.2,211.8z M117.2,211.9L117.2,211.9L117.2,211.9
	C117.2,211.8,117.2,211.8,117.2,211.9C117.3,211.8,117.2,211.9,117.2,211.9L117.2,211.9z"/>
<path class="st40" d="M125.9,212L125.9,212L125.9,212L125.9,212C125.9,212,125.9,212,125.9,212C125.9,212,125.9,212,125.9,212z"/>
<path class="st4" d="M118.4,207.5c0.1,0,0.1-0.1,0.1-0.1h1.1c0.1,0,0.2,0,0.2,0c0.1,0,0.2-0.2,0.1-0.4c0-0.1-0.1-0.1-0.2-0.2h-1.2
	c-0.1,0-0.1,0-0.2,0c-0.1,0-0.1,0.1-0.1,0.1H118c0,0.1,0,0.2,0,0.2C118,207.3,118.2,207.5,118.4,207.5
	C118.4,207.5,118.4,207.5,118.4,207.5z"/>
<path class="st4" d="M117.3,210.2h1.7c0.1,0,0.2-0.2,0.1-0.4c-0.1-0.2-0.2-0.2-0.4-0.2h1.3c0.1,0,0.1,0,0.2,0c0.1,0,0.1-0.1,0.1-0.1
	h0.8c-0.1,0-0.2,0.2-0.1,0.4c0.1,0.2,0.2,0.2,0.4,0.2h1.7c0.1,0,0.2-0.2,0.1-0.4c0-0.1-0.1-0.1-0.2-0.2h-2.4c-0.1,0-0.1,0-0.2,0
	c-0.1,0-0.1,0.1-0.1,0.1h-2.5c-0.1,0-0.1,0-0.2,0c-0.1,0-0.1,0.1-0.1,0.1h-0.5c0,0.1,0,0.2,0,0.2C117,210.2,117.2,210.3,117.3,210.2
	z"/>
<path class="st4" d="M119,207C119,207,119,207,119,207l-0.2,0.4c0,0.1,0,0.1,0.1,0.1l0.4,0.2c0,0,0.1,0,0.1,0l0.1-0.4
	c0-0.1,0-0.1-0.1-0.1L119,207z"/>
<path class="st4" d="M121.2,208.1c0.1,0,0.1-0.2,0.1-0.3c-0.1-0.1-0.2-0.2-0.3-0.2c-0.1,0-0.1,0.2-0.1,0.3
	C121,208.1,121.1,208.1,121.2,208.1z"/>
<path class="st4" d="M118.6,208.8l-0.4-0.2c0,0-0.1,0-0.1,0c0,0,0,0,0,0l-0.1,0.4c0,0.1,0.1,0.1,0.1,0.1l0.5-0.1l0,0
	C118.7,208.9,118.6,208.8,118.6,208.8z"/>
<polygon class="st4" points="121.4,209.7 121.6,210 122.5,209.7 122.3,209.4 "/>
<polygon class="st44" points="124.2,208.9 123.2,209.1 123.6,209.2 123.4,209.4 124.3,209.2 125.2,208.9 125.1,208.6 "/>
<polygon class="st45" points="117.8,210.8 118,211.1 118.9,210.8 118.7,210.5 "/>
<polygon class="st46" points="119.6,210.2 119.8,210.6 120.7,210.3 120.5,210 "/>
<polygon class="st47" points="120.5,210 120.7,210.3 121.6,210 121.4,209.7 "/>
<polygon class="st44" points="116,211.4 116.2,211.7 117.1,211.4 116.9,211.1 "/>
<polygon class="st48" points="116.9,211.1 117.1,211.4 118,211.1 117.8,210.8 "/>
<polygon class="st31" points="118.7,210.5 118.9,210.8 119.8,210.6 119.6,210.2 "/>
<polygon class="st31" points="123.2,209.1 123.2,209.1 122.3,209.4 122.5,209.7 123.4,209.4 123.4,209.4 123.6,209.2 "/>
<path class="st4" d="M116.9,212.7l0.2-0.1l-0.2-0.3l0.3-0.1l-0.3-0.5l-0.7,0.2l0,0l0,0l0.2,0.4l0.2-0.1L116.9,212.7l-0.2,0l0.2,0.4
	l0.2-0.1L116.9,212.7z"/>
<path class="st4" d="M117.6,213.5l-0.2-0.4l0.3-0.1l0,0c0,0,0,0,0,0l-0.2-0.3l0,0l0,0l-0.3,0.1l0.2,0.4l-0.3,0.1l0,0l0.2,0.4
	l-0.2,0.1l0.2,0.4l0,0l0,0l0.8-0.2c0.2-0.1,0.3-0.3,0.1-0.6L117.6,213.5z"/>
<path class="st4" d="M117.3,211.7c-0.1,0-0.1,0.1-0.2,0.1l0,0l0.1,0.2l0,0h0.1l0.1,0.2l0,0l0,0l0,0c0,0,0,0,0-0.1c0,0,0-0.1,0-0.1
	c0,0,0-0.1,0-0.1C117.4,211.9,117.4,211.8,117.3,211.7C117.3,211.7,117.3,211.7,117.3,211.7z M117.2,211.9
	C117.2,211.9,117.2,211.9,117.2,211.9C117.1,211.9,117.1,211.8,117.2,211.9C117.2,211.8,117.2,211.8,117.2,211.9L117.2,211.9
	L117.2,211.9z M117.4,212L117.4,212c-0.1,0-0.1,0-0.1-0.1c0,0,0-0.1,0-0.1l0,0c0.1,0,0.1,0,0.1,0.1
	C117.5,211.9,117.5,211.9,117.4,212z"/>
<path class="st4" d="M117.3,212.2L117.3,212.2l-0.1-0.2l0,0l0,0L117.3,212.2z"/>
<ellipse transform="matrix(0.7879 -0.6158 0.6158 0.7879 -105.5739 117.2016)" class="st4" cx="117.4" cy="211.9" rx="0.1" ry="0.1"/>
<path class="st4" d="M117.2,211.8C117.2,211.8,117.2,211.8,117.2,211.8C117.2,211.9,117.2,211.8,117.2,211.8
	C117.2,211.8,117.2,211.8,117.2,211.8C117.2,211.7,117.2,211.8,117.2,211.8z"/>
<path class="st4" d="M117.5,212c0,0.1,0,0.1,0,0.2h0.2c0-0.1-0.1-0.1-0.2-0.1c0.1-0.1,0.2,0.1,0.2,0.1c0-0.1-0.1-0.2-0.2-0.3
	C117.6,211.9,117.6,211.9,117.5,212z"/>
<path class="st4" d="M119.6,213c0,0,0,0,0,0.1c0,0,0.1,0.1,0.1,0.1c0,0,0,0,0-0.1C119.7,213,119.6,213,119.6,213z"/>
<polygon class="st4" points="119.3,213.4 119.4,213.4 119.2,213 119.1,213 "/>
<polygon class="st4" points="119.2,212.9 119.1,213 119.1,213 119.2,213 "/>
<polygon class="st4" points="119.3,213.5 119.4,213.4 119.4,213.4 119.3,213.4 "/>
<path class="st4" d="M119.1,213L119.1,213l-0.8-1.5l0,0l0,0l-0.3,0.1l0,0l0,0l1,2c0,0,0.1,0,0.1,0l0.3-0.1l0,0h0.1v-0.1l0,0
	l-0.2-0.4l0,0L119.1,213z"/>
<polygon class="st4" points="119.5,213.4 119.6,213.4 119.4,213.1 119.3,213.2 "/>
<path class="st4" d="M119.9,213L119.9,213c0.1,0,0.1-0.1,0-0.1c-0.1-0.1-0.1-0.1-0.2-0.1c-0.1,0-0.1,0.1,0,0.1l0,0
	C119.8,213,119.8,213,119.9,213z M119.7,212.9c0,0,0-0.1,0-0.1c0.1,0,0.1,0,0.1,0.1c0,0,0,0.1,0,0.1l0,0
	C119.8,213,119.8,213,119.7,212.9L119.7,212.9z"/>
<path class="st4" d="M119.8,213L119.8,213C119.8,213,119.8,213,119.8,213C119.8,212.9,119.8,212.9,119.8,213
	C119.8,212.9,119.8,212.9,119.8,213L119.8,213C119.8,213,119.8,213,119.8,213z"/>
<path class="st4" d="M119.8,213.2l0.1-0.1v-0.1h-0.1 M119.8,213.2v0.1l0.2-0.1v-0.1L119.8,213.2L119.8,213.2L119.8,213.2z"/>
<path class="st4" d="M119.4,212.9c-0.1-0.1-0.2-0.1-0.2-0.1v0.1l0.1,0.1h0.1l0.2,0.3l0.2-0.1l0,0v-0.1c0,0,0-0.1,0-0.1l0.1-0.1l0,0
	c-0.1,0-0.2,0-0.2-0.1l0,0C119.6,212.9,119.5,212.9,119.4,212.9z M119.7,213.2c-0.1,0-0.1,0-0.2-0.1c0-0.1,0-0.1,0-0.1
	c0.1,0,0.1,0,0.2,0.1C119.7,213.1,119.7,213.2,119.7,213.2L119.7,213.2z"/>
<path class="st4" d="M122.9,212c0,0,0,0.1,0,0.1c0,0,0.1,0.1,0.1,0.1c0,0,0-0.1,0-0.1C123,212,123,211.9,122.9,212z"/>
<polygon class="st4" points="122.7,212.4 122.8,212.3 122.6,212 122.5,212 "/>
<polygon class="st4" points="122.6,211.9 122.4,211.9 122.5,212 122.6,212 "/>
<polygon class="st4" points="122.7,212.4 122.8,212.4 122.8,212.4 122.7,212.4 "/>
<path class="st4" d="M121.5,210.4L121.5,210.4l-0.3,0.1l0,0c0,0,0,0,0,0l1,2c0,0,0,0.1,0.1,0.1l0.3-0.1l0,0h0.1v-0.1l0,0l-0.2-0.4
	l0,0l0,0l0,0l-0.8-1.5C121.7,210.5,121.6,210.4,121.5,210.4z"/>
<polygon class="st4" points="122.8,212.4 122.9,212.4 122.8,212.1 122.7,212.1 "/>
<path class="st4" d="M123.1,211.7c0,0,0,0.1,0,0.1c0,0,0,0,0,0l0,0c0,0.1,0.1,0.1,0.2,0.1l0,0c0,0,0.1-0.1,0-0.2
	C123.2,211.8,123.2,211.7,123.1,211.7z M123.2,212L123.2,212c0,0-0.1,0-0.1-0.1l0,0c0,0,0-0.1,0-0.1
	C123.2,211.8,123.2,211.8,123.2,212C123.3,211.9,123.3,211.9,123.2,212L123.2,212z"/>
<path class="st4" d="M123.2,211.9L123.2,211.9C123.2,211.9,123.2,211.9,123.2,211.9L123.2,211.9
	C123.3,211.9,123.3,211.9,123.2,211.9C123.2,211.8,123.2,211.8,123.2,211.9L123.2,211.9z"/>
<path class="st4" d="M123.2,212.2h0.1v-0.1L123.2,212.2L123.2,212.2l0,0.2l0.2-0.1v-0.1L123.2,212.2L123.2,212.2L123.2,212.2z"/>
<path class="st4" d="M122.8,211.9c-0.1-0.1-0.2-0.1-0.2-0.1v0.1l0.1,0.1h0.1l0.2,0.3l0.2-0.1l0,0v-0.1c0,0,0-0.1,0-0.1l0.1-0.1l0,0
	c-0.1,0-0.2,0-0.2-0.1l0,0C123,211.9,122.9,211.9,122.8,211.9z M123,212.1c-0.1,0-0.1,0-0.2-0.1c0-0.1,0-0.1,0-0.1
	c0,0,0.1,0,0.2,0.1C123.1,212.1,123.1,212.1,123,212.1z"/>
<path class="st4" d="M124.9,210.3c-0.1,0-0.1,0.2-0.1,0.3c0,0.1,0.2,0.2,0.3,0.2c0.1,0,0.1-0.2,0.1-0.3
	C125.2,210.3,125.1,210.3,124.9,210.3z M125.1,210.7c-0.1,0-0.2,0-0.2-0.1s0-0.2,0-0.2c0.1,0,0.2,0,0.2,0.1
	C125.2,210.5,125.2,210.6,125.1,210.7z"/>
<path class="st4" d="M125.5,209.7c-0.1-0.1-0.3-0.2-0.5-0.3c-0.1,0-0.2,0-0.3-0.1c-0.1,0-0.2,0-0.2,0c-0.1,0-0.1,0.1-0.2,0.1
	c-0.1,0.1-0.1,0.1-0.2,0.2c0,0.1-0.1,0.1-0.1,0.2c0,0.1,0,0.2,0,0.3c0,0.1,0,0.2,0,0.3c0,0.1,0.1,0.2,0.1,0.3
	c0.1,0.1,0.1,0.2,0.2,0.3c0.1,0.1,0.1,0.2,0.2,0.2c0.1,0.1,0.2,0.1,0.2,0.2c0.1,0,0.2,0.1,0.3,0.1c0.1,0,0.2,0,0.3,0
	c0.2,0,0.3,0,0.5-0.1c0.1,0,0.1-0.1,0.2-0.2c0-0.1,0.1-0.1,0.1-0.2c0-0.1,0-0.2,0-0.3c0-0.1,0-0.2,0-0.3c0-0.1-0.1-0.2-0.1-0.3
	c0-0.1-0.1-0.2-0.2-0.3C125.7,209.8,125.6,209.8,125.5,209.7z M125.5,210.5L125.5,210.5h-0.1l0.1,0.1l0,0l0,0h-0.1v0.1v0.1l-0.2,0.1
	v-0.1v-0.1H125l0,0l-0.1-0.1h-0.1h-0.1l-0.2-0.3h0.1h0.1l-0.1-0.1l0,0l0,0h0.1v-0.1V210l0.2-0.1v0.1v0.1h0.1l0,0l0,0l0.1,0.1h0.1
	h0.1L125.5,210.5z"/>
<path class="st4" d="M123.8,212C123.7,212.1,123.7,212.1,123.8,212L123.8,212l0.3-0.1l0,0c0,0,0,0,0-0.1l-0.8-1.5l0,0l0,0l0.4-0.1
	l0,0c0,0,0,0,0-0.1l-0.2-0.4l0,0l0,0l-0.3,0.1l-0.2,0.1c0,0,0,0.1,0,0.1c0,0-0.1,0-0.1,0h-0.2l-0.3,0.1l0,0c0,0,0,0,0,0.1l0.2,0.4
	v0.1l0,0l0.4-0.1l0,0L123.8,212z M123.3,210.5C123.4,210.5,123.4,210.5,123.3,210.5L123.3,210.5l-0.2,0.1c0,0,0,0-0.1,0l0,0
	c0,0,0-0.1,0-0.1h0.1H123.3C123.3,210.5,123.3,210.5,123.3,210.5L123.3,210.5z M123.3,210.1c0,0.1,0,0.1,0,0.1c0,0-0.1,0-0.1-0.1
	c0,0,0-0.1,0-0.1c0,0,0,0,0,0C123.3,210.1,123.3,210.1,123.3,210.1L123.3,210.1z M122.8,210.1c0,0,0.1,0,0.1,0
	c0.1,0,0.1,0.1,0.1,0.1c0,0,0,0.1,0.1,0.1l0,0l0,0l0,0l0,0c0,0-0.1-0.1-0.1-0.1c0-0.1,0-0.1,0-0.2c0-0.1,0.1-0.1,0.1-0.1l0,0
	c0,0-0.1,0-0.1,0.1c0,0,0,0.1,0,0.1c0,0,0.1,0.1,0.1,0.1c0.1,0.1,0,0.1,0,0.1h-0.1H123c0,0-0.1,0-0.1-0.1c0,0,0-0.1,0-0.1
	C122.9,210.1,122.9,210.1,122.8,210.1C122.8,210.1,122.8,210.1,122.8,210.1C122.7,210.1,122.7,210.1,122.8,210.1L122.8,210.1z
	 M122.8,210.3c0-0.1,0-0.1,0-0.1c0,0,0.1,0,0.1,0.1s0,0.1,0,0.1C122.9,210.4,122.8,210.4,122.8,210.3L122.8,210.3z"/>
<path class="st4" d="M122.9,210.3C122.9,210.3,122.9,210.3,122.9,210.3C122.8,210.3,122.8,210.3,122.9,210.3
	C122.9,210.3,122.9,210.3,122.9,210.3C122.9,210.3,122.9,210.3,122.9,210.3z"/>
<path class="st4" d="M123.2,210.2C123.2,210.2,123.3,210.2,123.2,210.2C123.3,210.2,123.3,210.2,123.2,210.2
	C123.3,210.1,123.2,210.1,123.2,210.2L123.2,210.2z"/>
<path class="st4" d="M122,212.6L122,212.6L122,212.6l-1.6-1.7l-0.1-0.1l0,0l0,0l-0.3,0.1l0,0v0l0.3,1.8l0,0l0.1,0.4
	c0.3,0,0.4-0.2,0.4-0.4l0,0l0,0l0.6-0.2l0,0l0,0C121.6,212.7,121.9,212.8,122,212.6z M121,211.8L121,211.8L121,211.8v0.1l0,0h-0.1
	v0.1v0.1h-0.2V212v-0.1h-0.1l0,0l-0.1-0.1l0,0l0,0l-0.1-0.2h0.1l0,0l-0.1-0.1l0,0l0,0h0.1v-0.1v-0.1l0.2-0.1v0.1v0.1h0.1l0,0
	l0.1,0.1h0.1l0,0L121,211.8z"/>
<ellipse transform="matrix(0.7879 -0.6158 0.6158 0.7879 -104.8498 119.2098)" class="st4" cx="120.6" cy="211.8" rx="0.1" ry="0.2"/>
<polygon class="st49" points="117.1,213.1 117.5,213 117.3,212.6 117.3,212.6 117.2,212.7 116.9,212.7 "/>
<polygon class="st50" points="116.7,212.3 116.5,212.4 116.5,212.4 116.7,212.8 116.7,212.8 116.9,212.7 "/>
<polygon class="st41" points="117.1,213.1 117.1,213.1 116.9,213.2 116.9,213.2 117.2,213.6 117.2,213.6 117.4,213.6 "/>
<path class="st4" d="M117.9,214.6L117.9,214.6C118,214.6,118,214.7,117.9,214.6L117.9,214.6C117.9,214.7,117.8,214.6,117.9,214.6
	c-0.1,0-0.1-0.1-0.1-0.1l0,0l0,0l0,0h0.1c0,0-0.1-0.1-0.1-0.1c0,0-0.1,0-0.1,0c0,0-0.1,0-0.1,0.1c0,0,0,0.1,0,0.1c0,0,0,0.1,0,0.1
	c0,0,0,0.1,0.1,0.1c0,0,0.1,0,0.1,0.1c0,0,0.1,0,0.1,0c0,0,0.1,0,0.1-0.1c0,0,0-0.1,0-0.1L117.9,214.6l-0.1,0L117.9,214.6z"/>
<path class="st4" d="M118.2,214.2h-0.1c0,0-0.1,0-0.1,0.1c0,0,0,0.1,0,0.1c0,0,0,0.1,0,0.1l0.1,0.1c0,0,0.1,0,0.1,0.1
	c0,0,0.1,0,0.1,0l0.1-0.1c0,0,0-0.1,0-0.1c0,0,0-0.1,0-0.1c0,0-0.1-0.1-0.1-0.1L118.2,214.2z M118.3,214.5L118.3,214.5
	C118.3,214.5,118.3,214.5,118.3,214.5l-0.1-0.1c0,0,0-0.1,0-0.1l0,0 M118.2,214.3C118.3,214.4,118.3,214.4,118.2,214.3
	c0.1,0.1,0.1,0.1,0.1,0.1L118.2,214.3z"/>
<path class="st4" d="M118.7,214.3L118.7,214.3C118.7,214.3,118.7,214.2,118.7,214.3c0-0.1,0-0.1-0.1-0.1c0,0-0.1,0-0.1,0l-0.2,0.1
	l0.2,0.5l0.2-0.1c0,0,0.1,0,0.1-0.1c0,0,0-0.1,0-0.1C118.8,214.4,118.8,214.4,118.7,214.3L118.7,214.3z M118.5,214.2L118.5,214.2
	L118.5,214.2L118.5,214.2L118.5,214.2L118.5,214.2L118.5,214.2z M118.7,214.4L118.7,214.4L118.7,214.4L118.7,214.4L118.7,214.4
	C118.7,214.3,118.7,214.3,118.7,214.4L118.7,214.4z"/>
<polygon class="st4" points="118.9,214.5 119.1,214.4 118.8,214 118.7,214 "/>
<polygon class="st4" points="119.1,214.4 119.4,214.4 119.3,214.2 119.2,214.3 119.1,214.2 119.2,214.2 119.2,214.1 119.1,214.1 
	119.1,214.1 119.2,214 119.1,213.9 118.9,214 "/>
<path class="st4" d="M119.6,214C119.6,214,119.6,214,119.6,214c0-0.1,0-0.1,0-0.2c0,0-0.1,0-0.1,0c0,0-0.1,0-0.1,0h-0.2l0.2,0.5h0.1
	l-0.1-0.2l0,0l0.2,0.1h0.1l-0.2-0.1C119.6,214.1,119.6,214.1,119.6,214z M119.4,214L119.4,214L119.4,214L119.4,214L119.4,214
	L119.4,214L119.4,214C119.5,214,119.5,214,119.4,214L119.4,214z"/>
<polygon class="st4" points="119.9,213.9 119.6,213.7 119.5,213.8 119.8,214.2 119.9,214.2 119.7,214 120,214.2 120.1,214.1 
	119.9,213.7 119.7,213.7 "/>
<path class="st4" d="M120.2,213.6h-0.1c0,0-0.1,0-0.1,0.1c0,0,0,0.1,0,0.1c0,0,0,0.1,0,0.1c0,0,0,0.1,0.1,0.1c0,0,0.1,0.1,0.1,0.1
	h0.1c0,0,0.1,0,0.1-0.1c0,0,0-0.1,0-0.1c0,0,0-0.1,0-0.1c0,0,0-0.1-0.1-0.1C120.3,213.6,120.3,213.6,120.2,213.6z M120.3,213.9
	C120.3,213.9,120.3,213.9,120.3,213.9C120.3,214,120.3,213.9,120.3,213.9C120.2,213.9,120.2,213.9,120.3,213.9
	c-0.1,0-0.1-0.1-0.1-0.1c0,0,0,0,0-0.1c0,0,0,0,0.1,0C120.3,213.7,120.4,213.8,120.3,213.9C120.4,213.8,120.3,213.9,120.3,213.9
	L120.3,213.9z"/>
<path class="st4" d="M120.5,213.5l0.1,0.5h0.1v-0.1h0.1l0.1,0.1h0.1l-0.4-0.4L120.5,213.5z M120.7,213.7v-0.1V213.7L120.7,213.7z"/>
<path class="st4" d="M121.1,213.6C121.1,213.6,121.1,213.6,121.1,213.6L121.1,213.6L121.1,213.6
	C121.1,213.6,121.1,213.6,121.1,213.6l-0.1-0.2h-0.1l0.1,0.3c0,0,0,0.1,0.1,0.1l0.1,0h0c0,0,0.1,0,0.1,0c0,0,0-0.1,0-0.1
	c0,0,0-0.1,0-0.1l-0.1-0.3H121L121.1,213.6z"/>
<polygon class="st4" points="121.2,213.4 121.3,213.4 121.5,213.7 121.6,213.7 121.4,213.3 121.5,213.3 121.5,213.2 121.2,213.3 "/>
<path class="st4" d="M121.8,213.1c0,0-0.1,0-0.1,0c0,0,0,0-0.1,0c0,0,0,0.1,0,0.1c0,0,0,0.1,0,0.1c0,0,0.1,0.1,0.1,0.1
	c0,0,0.1,0.1,0.1,0.1h0.1c0,0,0.1,0,0.1-0.1c0,0,0-0.1,0-0.1c0,0,0-0.1,0-0.1c0,0,0-0.1-0.1-0.1
	C121.9,213.1,121.8,213.1,121.8,213.1z M121.9,213.4L121.9,213.4C121.9,213.4,121.8,213.4,121.9,213.4c-0.1,0-0.1,0-0.1-0.1
	c0,0,0-0.1,0-0.1l0,0c0,0,0,0,0.1,0C121.8,213.3,121.9,213.3,121.9,213.4C121.9,213.3,121.9,213.4,121.9,213.4z"/>
<polygon class="st4" points="121.6,213.1 121.7,213 121.6,212.9 121.5,213 "/>
<polygon class="st4" points="122.2,213.2 122,213 121.9,213 122.1,213.5 122.2,213.5 122.1,213.2 122.4,213.4 122.5,213.4 
	122.2,212.9 122.1,213 "/>
<path class="st4" d="M122.6,212.9c0,0-0.1,0-0.1,0c0,0-0.1,0-0.1,0.1c0,0,0,0.1,0,0.1c0,0,0,0.1,0,0.1c0,0,0,0.1,0.1,0.1
	c0,0,0.1,0.1,0.1,0.1h0.1c0,0,0.1,0,0.1-0.1c0,0,0-0.1,0-0.1c0,0,0-0.1,0-0.1c0,0,0-0.1-0.1-0.1
	C122.7,212.9,122.6,212.9,122.6,212.9z M122.7,213.2L122.7,213.2C122.7,213.2,122.6,213.2,122.7,213.2c-0.1,0-0.1,0-0.1-0.1
	c0,0,0-0.1,0-0.1l0,0c0,0,0,0,0.1,0C122.6,213.1,122.6,213.1,122.7,213.2C122.6,213.1,122.7,213.1,122.7,213.2L122.7,213.2z"/>
<polygon class="st4" points="123.1,213 122.8,212.8 122.7,212.8 122.9,213.2 123.1,213.2 122.9,213 123.1,213.2 123.2,213.2 
	123.1,212.9 123.3,213.1 123.4,213.1 123.1,212.7 123,212.7 "/>
<path class="st4" d="M123.5,212.6c0,0-0.1,0-0.1,0c0,0-0.1,0-0.1,0.1c0,0,0,0.1,0,0.1c0,0,0,0.1,0,0.1c0,0,0.1,0.1,0.1,0.1
	c0,0,0.1,0.1,0.1,0.1h0.1c0,0,0.1,0,0.1-0.1c0,0,0-0.1,0-0.1c0,0,0-0.1,0-0.1c0,0-0.1-0.1-0.1-0.1
	C123.6,212.6,123.5,212.6,123.5,212.6z M123.6,212.9L123.6,212.9C123.6,212.9,123.6,212.9,123.6,212.9c-0.1,0-0.1,0-0.1-0.1
	c0,0,0-0.1,0-0.1c0,0,0,0,0,0c0,0,0,0,0.1,0c0,0,0,0,0.1,0.1C123.6,212.8,123.6,212.9,123.6,212.9L123.6,212.9z"/>
<polygon class="st4" points="124.1,212.7 123.8,212.4 123.7,212.5 123.9,212.9 124,212.9 123.9,212.7 124.1,212.9 124.2,212.9 
	124.1,212.6 124.2,212.9 124.4,212.8 124.1,212.4 124,212.4 "/>
<path class="st4" d="M124.5,212.5C124.5,212.6,124.5,212.6,124.5,212.5L124.5,212.5L124.5,212.5L124.5,212.5l-0.1-0.2h-0.1l0.1,0.3
	c0,0,0,0.1,0.1,0.1l0.1,0h0.1c0,0,0.1,0,0.1,0c0,0,0-0.1,0-0.1c0,0,0-0.1,0-0.1l-0.1-0.3h-0.1L124.5,212.5z"/>
<polygon class="st4" points="124.9,212.4 124.7,212.2 124.5,212.2 124.8,212.7 124.9,212.6 124.8,212.4 125,212.6 125.1,212.6 
	124.9,212.1 124.8,212.1 "/>
<polygon class="st4" points="125.2,212.6 125.3,212.5 125.1,212.1 124.9,212.1 "/>
<path class="st4" d="M125.3,212.1L125.3,212.1L125.3,212.1h0.1H125.3C125.4,212,125.3,212,125.3,212.1l-0.1-0.1c0,0-0.1,0-0.1,0.1
	c0,0,0,0.1,0,0.1c0,0,0,0.1,0,0.1c0,0,0.1,0.1,0.1,0.1c0,0,0.1,0,0.1,0.1c0,0,0.1,0,0.1,0h0.1c0,0,0-0.1,0-0.1c0,0,0-0.1,0-0.1h-0.1
	l0,0l0,0c0,0,0,0-0.1,0c0,0,0,0-0.1-0.1C125.3,212.2,125.3,212.2,125.3,212.1C125.3,212.2,125.3,212.1,125.3,212.1z"/>
<polygon class="st4" points="125.7,212.4 125.8,212.4 125.6,211.9 125.5,211.9 "/>
<path class="st4" d="M125.8,211.8h-0.2l0.2,0.5h0.1l-0.1-0.1l0,0c0,0,0,0,0.1-0.1c0,0,0,0,0-0.1c0,0,0-0.1,0-0.1
	C126,211.9,125.9,211.9,125.8,211.8C125.9,211.8,125.9,211.8,125.8,211.8z M125.9,212L125.9,212L125.9,212L125.9,212
	C125.9,211.9,126,211.9,125.9,212C126,212,125.9,212,125.9,212z"/>
<path class="st4" d="M126.1,211.8l0.1,0.5h0.1v-0.1h0.1v0.1h0.1L126.1,211.8L126.1,211.8z M126.3,212v-0.1V212L126.3,212z"/>
<polygon class="st4" points="126.5,211.6 126.4,211.7 126.6,212.1 126.9,212.1 126.8,211.9 126.7,212 "/>
</svg>
